<?xml version="1.0" encoding="utf-8"?>
<!-- Generator: Adobe Illustrator 23.0.1, SVG Export Plug-In . SVG Version: 6.00 Build 0)  -->
<svg version="1.1" id="Beach_x5F_Shorts" xmlns="http://www.w3.org/2000/svg" xmlns:xlink="http://www.w3.org/1999/xlink" x="0px"
	 y="0px" viewBox="0 0 136.13 120.41" style="enable-background:new 0 0 136.13 120.41;" xml:space="preserve">
<style type="text/css">
	.st0{fill:#FFC83A;}
	.st1{fill:#E0A626;}
	.st2{fill:#FFD16D;}
	.st3{fill:#3FB763;}
	.st4{fill:#32964F;}
</style>
<g id="Shorts">
	<polygon id="Shorts_x5F_Fill" class="st0" points="133.63,107.54 76.02,117.91 68.07,73.77 60.11,117.91 2.5,107.54 19.71,12.06 
		116.42,12.06 	"/>
	<path id="Shorts_x5F_Outline_1_" class="st1" d="M76.02,120.41c-1.19,0-2.24-0.85-2.46-2.06l-5.49-30.49l-5.5,30.49
		c-0.25,1.36-1.55,2.26-2.9,2.02L2.06,110c-0.65-0.12-1.23-0.49-1.61-1.03c-0.38-0.54-0.53-1.22-0.41-1.87l17.21-95.47
		c0.21-1.19,1.25-2.06,2.46-2.06h96.72c1.21,0,2.25,0.87,2.46,2.06l17.21,95.47c0.12,0.65-0.03,1.33-0.41,1.87
		c-0.38,0.54-0.96,0.92-1.61,1.03l-57.61,10.38C76.31,120.4,76.17,120.41,76.02,120.41z M5.4,105.52l52.69,9.49l7.52-41.68
		c0.21-1.19,1.25-2.06,2.46-2.06l0,0c1.21,0,2.25,0.87,2.46,2.06l7.51,41.68l52.69-9.49l-16.39-90.96H21.79L5.4,105.52z"/>
</g>
<g id="Fly">
	<path id="Fly_x5F_Fill" class="st2" d="M73.28,55.16h-2.94c-4.14,0-7.5-3.36-7.5-7.5v-35.6h10.44V55.16z"/>
	<path id="Fly_x5F_Outline" class="st1" d="M73.28,57.66h-2.94c-5.51,0-10-4.48-10-10v-35.6c0-1.38,1.12-2.5,2.5-2.5h10.44
		c1.38,0,2.5,1.12,2.5,2.5v43.1C75.78,56.54,74.66,57.66,73.28,57.66z M65.35,14.56v33.1c0,2.75,2.24,5,5,5h0.44v-38.1H65.35z"/>
</g>
<g id="Pattern">
	<path id="Pattern_x5F_Fill" class="st3" d="M36.69,52.38c0,3.32-2.69,6.01-6.01,6.01s-6.01-2.69-6.01-6.01
		c0-3.32,2.69-6.01,6.01-6.01S36.69,49.06,36.69,52.38z M45.56,23.49c-3.32,0-6.01,2.69-6.01,6.01s2.69,6.01,6.01,6.01
		c3.32,0,6.01-2.69,6.01-6.01S48.88,23.49,45.56,23.49z M26.31,77c-3.32,0-6.01,2.69-6.01,6.01c0,3.32,2.69,6.01,6.01,6.01
		s6.01-2.69,6.01-6.01C32.31,79.69,29.62,77,26.31,77z M49.68,64.99c-3.32,0-6.01,2.69-6.01,6.01S46.36,77,49.68,77
		c3.32,0,6.01-2.69,6.01-6.01S53,64.99,49.68,64.99z M99.44,52.38c0,3.32,2.69,6.01,6.01,6.01s6.01-2.69,6.01-6.01
		c0-3.32-2.69-6.01-6.01-6.01S99.44,49.06,99.44,52.38z M84.57,29.5c0,3.32,2.69,6.01,6.01,6.01c3.32,0,6.01-2.69,6.01-6.01
		s-2.69-6.01-6.01-6.01C87.25,23.49,84.57,26.18,84.57,29.5z M103.82,83c0,3.32,2.69,6.01,6.01,6.01c3.32,0,6.01-2.69,6.01-6.01
		c0-3.32-2.69-6.01-6.01-6.01C106.51,77,103.82,79.69,103.82,83z M80.44,70.99c0,3.32,2.69,6.01,6.01,6.01s6.01-2.69,6.01-6.01
		s-2.69-6.01-6.01-6.01S80.44,67.68,80.44,70.99z"/>
	<path id="Pattern_x5F_Outline" class="st4" d="M30.69,60.38c-4.41,0-8.01-3.59-8.01-8.01s3.59-8.01,8.01-8.01s8.01,3.59,8.01,8.01
		S35.1,60.38,30.69,60.38z M30.69,48.37c-2.21,0-4.01,1.8-4.01,4.01s1.8,4.01,4.01,4.01s4.01-1.8,4.01-4.01S32.9,48.37,30.69,48.37z
		 M45.56,37.5c-4.41,0-8-3.59-8-8.01s3.59-8,8-8s8.01,3.59,8.01,8S49.97,37.5,45.56,37.5z M45.56,25.49c-2.21,0-4,1.8-4,4
		c0,2.21,1.8,4.01,4,4.01c2.21,0,4.01-1.8,4.01-4.01C49.56,27.29,47.77,25.49,45.56,25.49z M26.31,91.01
		c-4.41,0-8.01-3.59-8.01-8.01S21.89,75,26.31,75s8.01,3.59,8.01,8.01S30.72,91.01,26.31,91.01z M26.31,79
		c-2.21,0-4.01,1.8-4.01,4.01s1.8,4.01,4.01,4.01s4.01-1.8,4.01-4.01S28.52,79,26.31,79z M49.68,79c-4.41,0-8.01-3.59-8.01-8
		s3.59-8.01,8.01-8.01s8.01,3.59,8.01,8.01S54.1,79,49.68,79z M49.68,66.99c-2.21,0-4.01,1.8-4.01,4.01c0,2.21,1.8,4,4.01,4
		s4.01-1.8,4.01-4C53.69,68.78,51.89,66.99,49.68,66.99z M105.44,60.38c-4.41,0-8.01-3.59-8.01-8.01s3.59-8.01,8.01-8.01
		s8.01,3.59,8.01,8.01S109.86,60.38,105.44,60.38z M105.44,48.37c-2.21,0-4.01,1.8-4.01,4.01s1.8,4.01,4.01,4.01s4.01-1.8,4.01-4.01
		S107.65,48.37,105.44,48.37z M90.57,37.5c-4.41,0-8.01-3.59-8.01-8.01s3.59-8,8.01-8s8.01,3.59,8.01,8S94.99,37.5,90.57,37.5z
		 M90.57,25.49c-2.21,0-4.01,1.8-4.01,4c0,2.21,1.8,4.01,4.01,4.01s4.01-1.8,4.01-4.01C94.58,27.29,92.78,25.49,90.57,25.49z
		 M109.82,91.01c-4.41,0-8-3.59-8-8.01s3.59-8.01,8-8.01s8.01,3.59,8.01,8.01S114.24,91.01,109.82,91.01z M109.82,79
		c-2.21,0-4,1.8-4,4.01s1.8,4.01,4,4.01c2.21,0,4.01-1.8,4.01-4.01S112.03,79,109.82,79z M86.45,79c-4.41,0-8-3.59-8-8
		s3.59-8.01,8-8.01s8.01,3.59,8.01,8.01S90.86,79,86.45,79z M86.45,66.99c-2.21,0-4,1.8-4,4.01c0,2.21,1.8,4,4,4
		c2.21,0,4.01-1.8,4.01-4C90.45,68.78,88.66,66.99,86.45,66.99z"/>
</g>
<g id="Lining">
	<path id="Lining_x5F_Fill" class="st3" d="M62.03,107.77l-1.83,10.14L2.59,107.53L4.42,97.4L62.03,107.77z M74.1,107.77l1.83,10.14
		l57.61-10.38l-1.83-10.13L74.1,107.77z M19.71,2.5v9.56h96.72V2.5H19.71z"/>
	<path id="Lining_x5F_Outline" class="st4" d="M60.2,120.41c-0.15,0-0.3-0.01-0.45-0.04L2.15,109.99c-0.65-0.12-1.23-0.49-1.61-1.03
		c-0.38-0.54-0.52-1.22-0.41-1.87l1.83-10.13c0.25-1.36,1.54-2.26,2.9-2.02l57.61,10.37c0.65,0.12,1.23,0.49,1.61,1.03
		c0.38,0.54,0.52,1.22,0.41,1.87l-1.83,10.14C62.44,119.56,61.39,120.41,60.2,120.41z M5.5,105.51l52.69,9.49l0.94-5.22L6.44,100.3
		L5.5,105.51z M75.92,120.41c-1.19,0-2.24-0.85-2.46-2.06l-1.83-10.14c-0.12-0.65,0.03-1.33,0.41-1.87
		c0.38-0.54,0.96-0.92,1.61-1.03l57.61-10.37c1.36-0.24,2.66,0.66,2.9,2.02l1.83,10.13c0.12,0.65-0.03,1.33-0.41,1.87
		c-0.38,0.54-0.96,0.92-1.61,1.03l-57.61,10.38C76.22,120.4,76.07,120.41,75.92,120.41z M77,109.79l0.94,5.22l52.69-9.49l-0.94-5.21
		L77,109.79z M116.42,14.56H19.7c-1.38,0-2.5-1.12-2.5-2.5V2.5c0-1.38,1.12-2.5,2.5-2.5h96.72c1.38,0,2.5,1.12,2.5,2.5v9.56
		C118.92,13.44,117.81,14.56,116.42,14.56z M22.2,9.56h91.72V5H22.2V9.56z"/>
</g>
</svg>
