<?xml version="1.0" encoding="utf-8"?>
<!-- Generator: Adobe Illustrator 23.0.1, SVG Export Plug-In . SVG Version: 6.00 Build 0)  -->
<svg version="1.1" id="Beach_x5F_Ball" xmlns="http://www.w3.org/2000/svg" xmlns:xlink="http://www.w3.org/1999/xlink" x="0px"
	 y="0px" viewBox="0 0 121.26 121.26" style="enable-background:new 0 0 121.26 121.26;" xml:space="preserve">
<style type="text/css">
	.st0{fill:#DCDBD9;}
	.st1{fill:#EAEAEA;stroke:#DCDBD9;stroke-miterlimit:10;}
	.st2{fill:#EF5144;}
	.st3{fill:#D63D30;}
	.st4{fill:#FFC83A;}
	.st5{fill:#F2B61C;}
</style>
<g id="Background">
	<path id="Ball_x5F_Oultine" class="st0" d="M60.63,121.26C27.2,121.26,0,94.06,0,60.63S27.2,0,60.63,0s60.63,27.2,60.63,60.63
		S94.06,121.26,60.63,121.26z M60.63,5C29.95,5,5,29.96,5,60.63c0,30.68,24.96,55.63,55.63,55.63s55.63-24.96,55.63-55.63
		C116.26,29.95,91.3,5,60.63,5z"/>
	<path id="Ball_x5F_Background" class="st1" d="M116.26,60.63c0,30.68-24.96,55.63-55.63,55.63C29.95,116.26,5,91.3,5,60.63
		S29.96,5,60.63,5C91.3,5,116.26,29.95,116.26,60.63z"/>
</g>
<g id="Red">
	<path id="Fill" class="st2" d="M110.98,89.69c-3.88,6.71-9.06,12.56-15.2,17.23c-1.07-8.35-3.93-16.37-8.37-23.49
		c-4.43-7.12-10.44-13.33-17.77-18.06l-0.03-0.02c0.62-1.17,1.01-2.47,1.13-3.85l0.03,0.01C87.96,64.53,102.54,75.11,110.98,89.69
		L110.98,89.69z M87.41,83.43c-4.43-7.12-10.44-13.33-17.77-18.06l-0.03-0.02c-0.08,0.15-0.16,0.3-0.25,0.45
		c-0.42,0.7-0.92,1.35-1.49,1.93c-0.12,0.11-0.23,0.23-0.35,0.34c-0.12,0.11-0.25,0.21-0.37,0.32c10.03,14.3,12.87,32.11,8.52,48.39
		v0.01c3.49-0.93,6.85-2.18,10.05-3.73c0.36-0.17,0.71-0.34,1.06-0.52c0.7-0.35,1.39-0.72,2.08-1.1c0.35-0.19,0.69-0.39,1.02-0.58
		c0.34-0.2,0.68-0.4,1.02-0.61c0.32-0.19,0.64-0.39,0.96-0.59c0.26-0.17,0.52-0.34,0.78-0.51c0.4-0.26,0.79-0.53,1.18-0.8
		c0.01-0.01,0.03-0.02,0.05-0.03c0.37-0.27,0.74-0.53,1.11-0.8c0.27-0.2,0.53-0.4,0.8-0.6C94.71,98.57,91.85,90.55,87.41,83.43z
		 M51.63,55.89c-0.61,1.17-1,2.47-1.12,3.85v0.01c-8.6-1.51-16.55-4.91-23.4-9.76c-6.86-4.84-12.62-11.13-16.84-18.43
		c3.8-6.58,8.87-12.36,14.86-16.98c0.11-0.08,0.22-0.17,0.33-0.25c1.07,8.36,3.94,16.38,8.38,23.51
		C38.28,44.96,44.28,51.17,51.63,55.89z M45.57,4.47L45.57,4.47c-1.19,0.31-2.36,0.66-3.52,1.06c-1.87,0.62-3.7,1.34-5.47,2.16
		c-0.35,0.17-0.71,0.33-1.06,0.5c-0.36,0.17-0.71,0.34-1.06,0.52c-1.06,0.52-2.09,1.08-3.1,1.68c-0.34,0.2-0.68,0.4-1.02,0.61
		c-0.32,0.19-0.64,0.39-0.96,0.59c-0.26,0.17-0.52,0.34-0.78,0.51c-0.4,0.26-0.79,0.53-1.18,0.8c-0.01,0.01-0.03,0.02-0.05,0.03
		c-0.37,0.26-0.74,0.53-1.11,0.8c-0.27,0.19-0.53,0.39-0.8,0.6c1.07,8.36,3.94,16.38,8.38,23.51c4.44,7.12,10.44,13.33,17.79,18.05
		c0.08-0.15,0.17-0.3,0.26-0.45c0.03-0.05,0.06-0.1,0.09-0.15c0.14-0.23,0.28-0.44,0.44-0.65c0.09-0.13,0.19-0.26,0.3-0.39
		c0.2-0.25,0.42-0.5,0.65-0.73c0.23-0.24,0.47-0.46,0.72-0.67C44.06,38.55,41.22,20.76,45.57,4.47z"/>
	<path id="Oultine_1_" class="st3" d="M75.68,119.29c-0.54,0-1.08-0.18-1.52-0.52c-0.62-0.47-0.98-1.21-0.98-1.98
		c0-0.22,0.03-0.44,0.08-0.65c4.26-15.97,1.29-32.85-8.15-46.31c-0.66-0.94-0.59-2.2,0.15-3.07c0.75-0.87,1.99-1.12,3.01-0.6
		c0.4,0.2,0.73,0.5,0.96,0.84c9.42,13.46,12.92,30.04,9.85,46.11c11.96-4.22,22.31-12.56,28.99-23.43
		c-8.35-13.61-22.01-22.94-37.71-25.72c-1.29-0.21-2.23-1.4-2.09-2.72c0.14-1.37,1.36-2.38,2.72-2.23c0.06,0.01,0.16,0.02,0.22,0.03
		c17.63,3.11,32.9,13.8,41.91,29.36c0.46,0.77,0.48,1.74,0.02,2.54c-8.01,13.85-21.43,24.15-36.82,28.26
		C76.11,119.26,75.9,119.29,75.68,119.29z M52.94,60.36c0.32-1.27-0.39-2.57-1.63-2.99c-0.14-0.05-0.28-0.08-0.42-0.1
		C35.2,54.5,21.54,45.16,13.19,31.55C19.86,20.7,30.22,12.36,42.17,8.13c-3.08,16.08,0.42,32.68,9.84,46.11l0,0l2.08-1.39l2.04-1.44
		c-9.44-13.46-12.41-30.34-8.15-46.3c0.11-0.41,0.11-0.84,0.01-1.26c-0.16-0.65-0.58-1.21-1.16-1.55s-1.27-0.43-1.91-0.26
		C29.53,6.16,16.11,16.46,8.1,30.3c-0.47,0.82-0.43,1.8,0.03,2.56c9.02,15.56,24.3,26.25,41.94,29.34c0.15,0.03,0.29,0.04,0.43,0.04
		C51.64,62.25,52.65,61.49,52.94,60.36z"/>
</g>
<g id="Yellow">
	<path id="Fill_1_" class="st4" d="M59.74,70.74c-3.01,17.2-13.59,31.8-28.18,40.24l-0.01-0.01c-6.58-3.81-12.35-8.87-16.98-14.86
		c-0.08-0.11-0.17-0.22-0.25-0.33c16.72-2.13,32.13-11.49,41.57-26.17C57.06,70.22,58.36,70.62,59.74,70.74z M54.25,68.53
		c-0.04-0.03-0.08-0.06-0.11-0.09c-0.22-0.18-0.42-0.37-0.62-0.56c-0.03-0.02-0.05-0.04-0.07-0.07c-0.21-0.21-0.41-0.43-0.6-0.65
		c0,0-0.01,0,0-0.01c-14.3,10.03-32.1,12.87-48.39,8.52c0.12,0.43,0.24,0.85,0.36,1.27c0.11,0.38,0.23,0.75,0.34,1.13
		c0.82,2.64,1.83,5.19,3.02,7.65c0.17,0.36,0.34,0.71,0.52,1.06c0.18,0.35,0.36,0.7,0.54,1.04c0.18,0.35,0.37,0.7,0.56,1.04
		c0.19,0.34,0.39,0.69,0.58,1.02c0.2,0.34,0.4,0.68,0.61,1.02c0.19,0.32,0.39,0.64,0.59,0.96c0.17,0.26,0.34,0.52,0.51,0.78
		c0.26,0.4,0.53,0.79,0.8,1.18c0.01,0.01,0.02,0.03,0.03,0.05c0.27,0.37,0.53,0.74,0.8,1.11c0.2,0.27,0.4,0.53,0.6,0.8
		c16.72-2.13,32.13-11.49,41.57-26.17C55.31,69.3,54.76,68.94,54.25,68.53z M106.92,25.46c-8.36,1.06-16.37,3.93-23.49,8.37
		c-7.12,4.43-13.34,10.43-18.06,17.77l-0.02,0.04c-1.17-0.62-2.47-1.02-3.85-1.13v-0.04c3.03-17.19,13.61-31.77,28.19-40.2
		C96.4,14.15,102.25,19.33,106.92,25.46z M116.08,43.17c-0.12-0.37-0.24-0.74-0.37-1.12c-0.74-2.24-1.63-4.42-2.65-6.53
		c-0.17-0.36-0.34-0.71-0.52-1.06c-0.53-1.05-1.09-2.09-1.68-3.1c-0.2-0.34-0.4-0.68-0.61-1.02c-0.36-0.59-0.72-1.17-1.1-1.74
		c-0.26-0.4-0.53-0.79-0.8-1.18c-0.01-0.01-0.02-0.03-0.03-0.05c-0.46-0.65-0.92-1.28-1.4-1.91c-8.36,1.06-16.37,3.93-23.49,8.37
		c-7.12,4.43-13.34,10.43-18.06,17.77l-0.02,0.04c0.31,0.16,0.6,0.34,0.89,0.52c0.53,0.36,1.03,0.76,1.49,1.21
		c0.23,0.23,0.45,0.47,0.66,0.72c0,0,0.01,0,0.01-0.01c14.3-10.02,32.1-12.86,48.38-8.51h0.01
		C116.57,44.76,116.34,43.96,116.08,43.17z"/>
	<path id="Outline" class="st5" d="M31.56,113.48c-0.2,0-0.41-0.02-0.61-0.07c-0.23-0.06-0.45-0.15-0.65-0.26
		C16.46,105.13,6.16,91.71,2.05,76.33c-0.2-0.75-0.04-1.55,0.43-2.17c0.61-0.79,1.67-1.15,2.63-0.89
		c15.96,4.26,32.84,1.29,46.31-8.15c0.57-0.4,1.28-0.54,1.96-0.4s1.27,0.56,1.62,1.16c0.7,1.17,0.34,2.68-0.81,3.4
		c-13.45,9.4-30.01,12.88-46.06,9.81c4.22,11.95,12.56,22.31,23.43,28.99c13.62-8.36,22.97-22.04,25.73-37.76
		c0.24-1.36,1.54-2.27,2.89-2.03c1.36,0.24,2.27,1.53,2.03,2.89c-3.1,17.66-13.81,32.96-29.4,41.97
		C32.43,113.37,32,113.48,31.56,113.48z M116.03,47.96c0.65,0.21,1.38,0.14,2.01-0.22c0.98-0.56,1.46-1.72,1.17-2.81
		C115.1,29.54,104.79,16.11,90.94,8.1c-0.83-0.48-1.83-0.43-2.6,0.06c-15.52,9.02-26.19,24.27-29.29,41.87
		c-0.01,0.06-0.02,0.15-0.03,0.21c-0.14,1.37,0.85,2.58,2.23,2.73c1.33,0.13,2.51-0.8,2.73-2.09c2.77-15.7,12.11-29.36,25.72-37.71
		c10.87,6.68,19.21,17.04,23.43,28.99c-16.08-3.08-32.69,0.43-46.16,9.88l2.87,4.1C83.27,46.72,100.1,43.74,116.03,47.96z"/>
</g>
<path id="Ball_x5F_Center" class="st0" d="M60.63,72.19c-6.38,0-11.56-5.19-11.56-11.56s5.19-11.56,11.56-11.56
	s11.56,5.19,11.56,11.56S67.01,72.19,60.63,72.19z M60.63,53.63c-3.86,0-6.99,3.14-6.99,6.99s3.14,6.99,6.99,6.99
	s6.99-3.14,6.99-6.99S64.48,53.63,60.63,53.63z"/>
</svg>
