<?xml version="1.0" encoding="utf-8"?>
<!-- Generator: Adobe Illustrator 23.0.1, SVG Export Plug-In . SVG Version: 6.00 Build 0)  -->
<svg version="1.1" id="Glass_x5F_Drink" xmlns="http://www.w3.org/2000/svg" xmlns:xlink="http://www.w3.org/1999/xlink" x="0px"
	 y="0px" viewBox="0 0 117.34 146.38" style="enable-background:new 0 0 117.34 146.38;" xml:space="preserve">
<style type="text/css">
	.st0{fill:#EAEAEA;}
	.st1{fill:#F15E54;}
	.st2{fill:#3FB763;}
	.st3{fill:#83C883;}
	.st4{fill:#32964F;}
	.st5{fill:#DCDBD9;}
</style>
<polygon id="Glass_x5F_Background" class="st0" points="50.3,20.67 2.56,20.67 50.3,77.55 98.04,20.67 "/>
<path id="Drink_1_" class="st1" d="M82.05,39.73L50.3,77.55L18.56,39.73H82.05z M84.55,39.73c0-1.38-1.12-2.5-2.5-2.5H18.56
	c-1.38,0-2.5,1.12-2.5,2.5s1.12,2.5,2.5,2.5h63.49C83.43,42.23,84.55,41.11,84.55,39.73z"/>
<g id="Lemon">
	<path id="Fill_2_" class="st2" d="M109.49,33.71L83.63,7.85c7.14-7.14,18.72-7.14,25.86,0C116.63,14.99,116.63,26.57,109.49,33.71z
		"/>
	<path id="Highlight_1_" class="st3" d="M97.21,18.94h-5V0.65h5V18.94z M109.9,8.27l-3.54-3.54L93.44,17.67l3.54,3.54L109.9,8.27z
		 M113.49,16.51H95.21v5h18.28V16.51z M112.85,30.84L99.92,17.91l-3.54,3.54l12.93,12.93L112.85,30.84z"/>
	<path id="Outiline" class="st4" d="M109.49,36.21c-0.64,0-1.28-0.24-1.77-0.73L81.86,9.62c-0.98-0.98-0.98-2.56,0-3.54
		C85.79,2.16,91.01,0,96.56,0s10.77,2.16,14.7,6.09c3.93,3.92,6.09,9.14,6.09,14.7s-2.16,10.77-6.09,14.7
		C110.77,35.97,110.12,36.21,109.49,36.21z M87.3,7.99l22.04,22.04c1.94-2.67,2.99-5.88,2.99-9.25c0-4.22-1.64-8.18-4.62-11.16
		S100.77,5,96.56,5C93.19,5,89.98,6.05,87.3,7.99z"/>
	<path id="Wall" class="st4" d="M99.06,20.79h-5V2.5h5V20.79z M111.25,9.62l-3.54-3.54L94.79,19.02l3.54,3.54L111.25,9.62z
		 M114.84,18.28H96.56v5h18.28V18.28z"/>
</g>
<g id="Glass">
	<path id="Glass_x5F_FootFill" class="st0" d="M70.25,143.2H30.2c11.94,0,19.44-7.48,20.02-18.2C50.8,135.72,58.3,143.2,70.25,143.2
		z"/>
	<path id="Glass_x5F_Stem" class="st5" d="M77.57,146.38H23.04c-1.38,0-2.5-1.12-2.5-2.5s1.12-2.5,2.5-2.5h54.53
		c1.38,0,2.5,1.12,2.5,2.5S78.95,146.38,77.57,146.38z M52.74,124.33V77.55c0-1.38-1.12-2.5-2.5-2.5s-2.5,1.12-2.5,2.5v46.78
		c0,1.38,1.12,2.5,2.5,2.5S52.74,125.71,52.74,124.33z M30.24,146.38c-1.38,0-2.5-1.12-2.5-2.5s1.12-2.5,2.5-2.5
		c10.67,0,17.56-6.69,17.56-17.05c0-1.38,1.12-2.5,2.5-2.5s2.5,1.12,2.5,2.5C52.8,137.52,43.73,146.38,30.24,146.38z M70.29,146.38
		c-13.49,0-22.56-8.86-22.56-22.05c0-1.38,1.12-2.5,2.5-2.5s2.5,1.12,2.5,2.5c0,10.36,6.89,17.05,17.56,17.05
		c1.38,0,2.5,1.12,2.5,2.5S71.67,146.38,70.29,146.38z"/>
	<path id="Glass_x5F_Bowl" class="st5" d="M50.24,80.05c-0.74,0-1.44-0.33-1.92-0.89L0.58,22.28c-0.62-0.74-0.76-1.78-0.35-2.66
		c0.41-0.88,1.29-1.44,2.27-1.44h95.48c0.97,0,1.86,0.56,2.27,1.44c0.41,0.88,0.27,1.92-0.35,2.66L52.15,79.16
		C51.68,79.73,50.98,80.05,50.24,80.05z M7.86,23.17l42.38,50.49l42.38-50.49H7.86z"/>
</g>
</svg>
