<?xml version="1.0" encoding="utf-8"?>
<!-- Generator: Adobe Illustrator 23.0.1, SVG Export Plug-In . SVG Version: 6.00 Build 0)  -->
<svg version="1.1" id="IceCream" xmlns="http://www.w3.org/2000/svg" xmlns:xlink="http://www.w3.org/1999/xlink" x="0px" y="0px"
	 viewBox="0 0 65.15 150.39" style="enable-background:new 0 0 65.15 150.39;" xml:space="preserve">
<style type="text/css">
	.st0{fill:#F9F6E5;}
	.st1{fill:#DB7D2F;}
	.st2{fill:#925523;}
	.st3{fill:#D8CBAD;}
</style>
<g id="Cone">
	<path id="IceCream_x5F_Fill" class="st0" d="M63.59,46.13c0,4.67-3.79,8.47-8.46,8.47c-0.95,0-1.88-0.15-2.75-0.46
		c-2.11-0.71-3.8-2.21-4.77-4.11c-1.49,2.86-4.6,4.76-8.03,4.56c-3.06-0.19-5.66-2-7-4.56c-1.33,2.57-3.94,4.38-7.01,4.56
		c-0.13,0.02-0.32,0.02-0.51,0.02c-3.27,0-6.1-1.86-7.51-4.58c-0.99,1.89-2.66,3.39-4.77,4.12c-0.88,0.3-1.81,0.45-2.75,0.45
		c-4.67,0-8.47-3.8-8.47-8.47c0-3.23,1.82-6.05,4.49-7.47c-1-2.92-1.51-5.96-1.51-9.06c0-15.46,12.58-28.03,28.04-28.03
		c15.45,0,28.03,12.57,28.03,28.03c0,3.1-0.5,6.15-1.51,9.06C61.77,40.08,63.59,42.89,63.59,46.13z"/>
	<path id="Cone_x5F_Fill" class="st1" d="M52.69,53.24l-20.12,94.78l7.06-94.39c0.15,0.01,0.31,0.02,0.46,0.02
		c4.15,0,7.51-3.37,7.51-7.52C47.61,49.43,49.73,52.24,52.69,53.24z M25.51,53.63c-0.15,0.02-0.3,0.02-0.45,0.02
		c-4.15,0-7.51-3.37-7.51-7.52c0,3.3-2.13,6.1-5.09,7.11l20.12,94.78L25.51,53.63z M32.57,46.13c0,4-3.12,7.27-7.07,7.5l7.07,94.39
		l7.06-94.39C35.69,53.39,32.57,50.13,32.57,46.13z"/>
	<path id="Cone_x5F_Oultline" class="st2" d="M17.6,66.1l-0.91-4.28l9.92-10.09l2.68,2.68L17.6,66.1z M51.24,55.01l-2.68-2.68
		L17.74,83.15l2.68,2.68L51.24,55.01z M48.59,80.23l-2.68-2.68L21.7,101.76l2.68,2.68L48.59,80.23z M42.51,108.87l-2.68-2.68
		l-14.24,14.24l2.68,2.68L42.51,108.87z M34.89,148.51l20.12-94.79l-4.63-0.98l-17.81,83.88l-17.8-83.88l-4.63,0.98l20.12,94.79
		c0.23,1.09,1.2,1.88,2.32,1.88S34.66,149.61,34.89,148.51z"/>
</g>
<g id="Scoop">
	<g id="Scoop_x5F_Bottom">
		<g id="Scoop_x5F_Path">
			<path class="st3" d="M10.02,56.15C4.49,56.15,0,51.65,0,46.13s4.5-10.02,10.02-10.02c1.94,0,3.83,0.56,5.47,1.62
				c1.16,0.75,1.49,2.3,0.74,3.46c-0.75,1.16-2.3,1.49-3.46,0.74c-0.83-0.54-1.78-0.82-2.75-0.82C7.25,41.11,5,43.36,5,46.13
				s2.25,5.02,5.02,5.02c0.55,0,1.1-0.09,1.62-0.27c2.04-0.7,3.4-2.61,3.4-4.75c0-1.38,1.12-2.5,2.5-2.5s2.5,1.12,2.5,2.5
				c0,4.28-2.72,8.09-6.78,9.48C12.23,55.97,11.13,56.15,10.02,56.15z"/>
		</g>
		<g id="Scoop_x5F_Path_1_">
			<path class="st3" d="M25.05,56.15c-5.52,0-10.01-4.5-10.01-10.02c0-1.38,1.12-2.5,2.5-2.5s2.5,1.12,2.5,2.5
				c0,2.77,2.25,5.02,5.01,5.02c0.05,0,0.11,0,0.17,0c0.06-0.01,0.09-0.01,0.15-0.01c2.64-0.15,4.71-2.35,4.71-5.01
				c0-1.38,1.12-2.5,2.5-2.5s2.5,1.12,2.5,2.5c0,5.28-4.1,9.65-9.35,9.99C25.5,56.15,25.28,56.15,25.05,56.15z"/>
		</g>
		<g id="Scoop_x5F_Path_2_">
			<path class="st3" d="M40.1,56.15c-0.2,0-0.42-0.01-0.62-0.02c-5.27-0.32-9.4-4.71-9.4-10c0-1.38,1.12-2.5,2.5-2.5
				s2.5,1.12,2.5,2.5c0,2.65,2.07,4.85,4.71,5.01c2.95,0.18,5.33-2.14,5.33-5.01c0-1.38,1.12-2.5,2.5-2.5s2.5,1.12,2.5,2.5
				C50.11,51.66,45.62,56.15,40.1,56.15z"/>
		</g>
		<g id="Scoop_x5F_Path_3_">
			<path class="st3" d="M55.13,56.15c-1.13,0-2.22-0.18-3.26-0.55c-4.03-1.37-6.76-5.18-6.76-9.47c0-1.38,1.12-2.5,2.5-2.5
				s2.5,1.12,2.5,2.5c0,2.15,1.36,4.06,3.39,4.75c0.53,0.19,1.07,0.27,1.63,0.27c2.76,0,5.01-2.25,5.01-5.02s-2.25-5.02-5.01-5.02
				c-1,0-1.97,0.3-2.8,0.86c-1.14,0.77-2.7,0.47-3.47-0.67c-0.77-1.14-0.47-2.7,0.67-3.47c1.66-1.12,3.6-1.72,5.61-1.72
				c5.52,0,10.01,4.5,10.01,10.02S60.65,56.15,55.13,56.15z"/>
		</g>
	</g>
	<path id="Scoop_x5F_Top" class="st3" d="M7.23,41.65c-1.01,0-1.96-0.62-2.34-1.62c-1.26-3.34-1.9-6.85-1.9-10.45
		C2.99,13.27,16.26,0,32.57,0s29.58,13.27,29.58,29.58c0,3.38-0.57,6.7-1.68,9.86c-0.46,1.3-1.89,1.98-3.19,1.52
		c-1.3-0.46-1.98-1.89-1.52-3.19c0.93-2.62,1.4-5.38,1.4-8.19C57.16,16.03,46.13,5,32.58,5S7.99,16.03,7.99,29.59
		c0,2.99,0.53,5.91,1.58,8.68c0.49,1.29-0.16,2.73-1.46,3.22C7.82,41.6,7.52,41.65,7.23,41.65z"/>
</g>
<g id="Sprinkles">
	<g id="Sprinkle">
		<circle id="Sprinkle_x5F_Path" class="st3" cx="23.04" cy="18.03" r="0.71"/>
	</g>
	<g id="Sprinkle_1_">
		<circle id="Sprinkle_x5F_Path_1_" class="st3" cx="49.91" cy="33.27" r="0.71"/>
	</g>
	<g id="Sprinkle_2_">
		<circle id="Sprinkle_x5F_Path_2_" class="st3" cx="29.19" cy="11.91" r="0.71"/>
	</g>
	<g id="Sprinkle_3_">
		<circle id="Sprinkle_x5F_Path_3_" class="st3" cx="40.25" cy="14.24" r="0.71"/>
	</g>
	<g id="Sprinkle_4_">
		<circle id="Sprinkle_x5F_Path_4_" class="st3" cx="15.3" cy="22.93" r="0.71"/>
	</g>
	<g id="Sprinkle_5_">
		<circle id="Sprinkle_x5F_Path_5_" class="st3" cx="23.04" cy="31.61" r="0.71"/>
	</g>
	<g id="Sprinkle_6_">
		<circle id="Sprinkle_x5F_Path_6_" class="st3" cx="34.48" cy="29.95" r="0.71"/>
	</g>
	<g id="Sprinkle_7_">
		<circle id="Sprinkle_x5F_Path_7_" class="st3" cx="44.35" cy="24.34" r="0.71"/>
	</g>
	<g id="Sprinkle_8_">
		<circle id="Sprinkle_x5F_Path_8_" class="st3" cx="25.06" cy="40.61" r="0.71"/>
	</g>
	<g id="Sprinkle_9_">
		<circle id="Sprinkle_x5F_Path_9_" class="st3" cx="39.63" cy="40.37" r="0.71"/>
	</g>
</g>
</svg>
