<?xml version="1.0" encoding="utf-8"?>
<!-- Generator: Adobe Illustrator 23.0.1, SVG Export Plug-In . SVG Version: 6.00 Build 0)  -->
<svg version="1.1" id="Palm_x5F_Tree" xmlns="http://www.w3.org/2000/svg" xmlns:xlink="http://www.w3.org/1999/xlink" x="0px"
	 y="0px" viewBox="0 0 110.8 167.05" style="enable-background:new 0 0 110.8 167.05;" xml:space="preserve">
<style type="text/css">
	.st0{fill:#B66A28;}
	.st1{fill:#DB7D2F;}
	.st2{fill:#925523;}
	.st3{fill:#3FB763;}
	.st4{fill:#32964F;}
	.st5{fill:#F2B61C;}
</style>
<g id="Trunk">
	<path id="Trunk_x5F_Dark" class="st0" d="M90,144.19c0,5.04-0.35,10-1.02,14.85c-6.36-0.99-12.84-1.6-19.43-1.81
		c1.94-8.63,2.96-17.6,2.96-26.82c0-25.64-7.91-49.44-21.43-69.08C74.86,81.09,90,110.87,90,144.19z"/>
	<path id="Trunk_x5F_Light" class="st1" d="M52.18,60.91c2.71,2.45,36.66,38.42,28.47,96.24h9.41c0.56-4.44,0.84-8.97,0.84-13.56
		C90.9,110.36,75.84,80.65,52.18,60.91z"/>
	<path id="Trunk_x5F_Lines" class="st2" d="M71.67,111.44l-1.65-2.5l10.97-7.25l1.65,2.5L71.67,111.44z M88.15,120.32l-15.97-5.7
		l-1.01,2.83l15.97,5.7L88.15,120.32z M89.33,129.77l-0.98-2.84l-16.38,5.65l0.98,2.84L89.33,129.77z M90.55,147.6l-18.33-7.23
		l-1.1,2.79l18.33,7.23L90.55,147.6z M78.68,94.13l-11.58-2.01l-0.51,2.96l11.58,2.01L78.68,94.13z"/>
	<path id="Trunk_x5F_Outline" class="st2" d="M91.45,159.39l-4.95-0.69c0.66-4.76,1-9.64,1-14.5c0-25.1-8.88-49.01-24.81-67.85
		c8.1,16.76,12.32,35.15,12.32,54.07c0,9.22-1.02,18.42-3.02,27.36l-4.88-1.09c1.92-8.58,2.9-17.42,2.9-26.27
		c0-24.31-7.26-47.71-20.99-67.66c-0.71-1.03-0.55-2.42,0.37-3.26c0.92-0.84,2.32-0.88,3.28-0.08
		c25.3,21.02,39.82,51.92,39.82,84.78C92.5,149.29,92.15,154.4,91.45,159.39z"/>
</g>
<g id="Leaves">
	<path id="Leaves_x5F_Fill" class="st3" d="M99.15,28.28L78.63,42.14l-7.26-2.91l-0.02,7.82L50.83,60.91
		c0.46-11.1,6.01-21.84,15.92-28.53C76.65,25.69,88.69,24.56,99.15,28.28z M41.61,28.32c-2.28,11.74,1.4,23.25,8.92,31.43
		l4.71-24.31l-5.52-5.54l7.19-3.08L61.63,2.5C51.6,7.27,43.89,16.58,41.61,28.32z M18.42,65.01C8.51,71.7,2.96,82.45,2.5,93.54
		l20.53-13.86l0.02-7.82l7.26,2.91l20.53-13.86C40.36,57.19,28.33,58.32,18.42,65.01z M31.04,87.07
		c-2.28,11.74,1.4,23.25,8.92,31.43l4.71-24.31l-5.52-5.54l7.19-3.08l4.71-24.31C41.02,66.02,33.31,75.33,31.04,87.07z M82.48,52.33
		c-11.74-2.28-23.25,1.4-31.43,8.92l24.31,4.71l5.54-5.52l3.08,7.19l24.31,4.71C103.53,62.32,94.22,54.6,82.48,52.33z M99.15,28.28
		l-5.3,3.58c-8.23-1.3-16.78,0.54-23.77,5.26c-6.52,4.41-11.23,11.01-13.36,18.47v0.01c-0.77,0.4-1.52,0.84-2.26,1.3
		c-0.93-1.1-1.78-2.26-2.54-3.46c0-0.01,0-0.01,0-0.01c2.11-8.3,7.16-15.88,14.81-21.05C76.64,25.69,88.68,24.56,99.15,28.28z
		 M41.62,28.57c-2.21,11.39,1.18,22.56,8.26,30.69c0.32-2.2,0.82-4.35,1.51-6.44c-4.18-6.97-5.73-15.34-4.16-23.43
		c1.62-8.35,6.43-15.74,13.24-20.65l1.16-5.99C51.6,7.52,43.89,16.83,41.62,28.57z M18.28,65.06C8.37,71.76,2.82,82.5,2.36,93.59
		l5.5-3.71c1.87-8.11,6.77-15.36,13.76-20.08c6.55-4.41,14.45-6.31,22.19-5.47c1.68-1.43,3.49-2.72,5.41-3.86
		C39.11,57.36,27.73,58.68,18.28,65.06z M48.51,65.81c-0.15-0.17-0.28-0.34-0.39-0.53c-0.85-0.21-1.7-0.38-2.56-0.51
		c-7.29,5.2-12.68,13.1-14.52,22.58c-2.28,11.74,1.4,23.25,8.92,31.43l1.26-6.51c-4.49-7.1-6.19-15.75-4.57-24.1
		c1.62-8.35,6.43-15.75,13.25-20.65l0.16-0.82C49.49,66.58,48.95,66.27,48.51,65.81z M102.23,71.73v0.01l5.74,1.11
		c-4.77-10.03-14.08-17.74-25.81-20.02C72.76,51,63.5,53,55.99,57.73c-0.13,0.54-0.25,1.1-0.34,1.65c0.12,0.3,0.19,0.61,0.21,0.93
		c0.1,0.12,0.17,0.26,0.24,0.4c0.33,0.69,0.37,1.44,0.18,2.11v0.01l0.4,0.07h0.01c7.19-4.72,16.03-6.52,24.56-4.87"/>
	<path id="Leaves_x5F_Outline_1_" class="st4" d="M50.83,63.41c-0.42,0-0.84-0.1-1.22-0.32c-0.82-0.46-1.32-1.34-1.28-2.29
		c0.51-12.25,6.87-23.65,17.01-30.5c6.42-4.34,13.9-6.63,21.63-6.63c4.45,0,8.83,0.76,13.02,2.25c0.89,0.32,1.52,1.11,1.64,2.04
		c0.12,0.94-0.3,1.86-1.08,2.39L80.03,44.21c-0.69,0.46-1.56,0.56-2.33,0.25l-3.84-1.54l-0.01,4.13c0,0.83-0.41,1.6-1.1,2.07
		L52.23,62.98C51.8,63.27,51.32,63.41,50.83,63.41z M86.97,28.68c-6.72,0-13.23,2-18.83,5.77c-7.37,4.98-12.44,12.71-14.18,21.33
		l14.9-10.06l0.01-6.5c0-0.83,0.41-1.6,1.1-2.07c0.69-0.46,1.56-0.56,2.33-0.25l6.03,2.41l14.9-10.06
		C91.17,28.87,89.08,28.68,86.97,28.68z M50.53,62.25c-0.69,0-1.36-0.29-1.84-0.81c-8.3-9.02-11.86-21.58-9.53-33.6
		c2.33-12.02,10.33-22.33,21.4-27.6c0.85-0.41,1.86-0.3,2.61,0.28c0.75,0.58,1.1,1.53,0.92,2.45l-4.71,24.31
		c-0.16,0.81-0.71,1.5-1.47,1.82l-3.8,1.63l2.92,2.93c0.58,0.59,0.84,1.43,0.68,2.24l-4.71,24.31c-0.18,0.93-0.86,1.67-1.77,1.93
		C50.99,62.22,50.76,62.25,50.53,62.25z M58.14,7.39c-7.25,4.98-12.38,12.68-14.07,21.4s0.19,17.79,5.05,25.11l3.42-17.65l-4.58-4.6
		c-0.58-0.59-0.84-1.43-0.68-2.24c0.16-0.81,0.71-1.5,1.47-1.82l5.97-2.56L58.14,7.39z M2.5,96.04c-0.42,0-0.84-0.1-1.22-0.32
		C0.46,95.27-0.04,94.38,0,93.44c0.51-12.25,6.87-23.65,17.01-30.5c6.42-4.34,13.9-6.63,21.63-6.63c4.45,0,8.83,0.76,13.02,2.24
		c0.89,0.32,1.52,1.11,1.64,2.04c0.12,0.94-0.3,1.86-1.08,2.39L31.7,76.84c-0.69,0.46-1.56,0.56-2.33,0.25l-3.84-1.54l-0.01,4.13
		c0,0.83-0.41,1.6-1.1,2.07L3.9,95.62C3.48,95.9,2.99,96.04,2.5,96.04z M38.64,61.31c-6.72,0-13.23,2-18.83,5.77
		C12.45,72.06,7.37,79.79,5.63,88.41l14.9-10.06l0.01-6.5c0-0.83,0.41-1.6,1.1-2.07c0.69-0.46,1.56-0.56,2.33-0.25L30,71.96
		l14.9-10.06C42.85,61.51,40.75,61.31,38.64,61.31z M39.96,121c-0.69,0-1.36-0.29-1.84-0.81c-8.3-9.02-11.86-21.58-9.53-33.6
		c2.33-12.02,10.33-22.33,21.4-27.6c0.85-0.4,1.86-0.3,2.61,0.28c0.75,0.58,1.1,1.53,0.92,2.45L48.8,86.04
		c-0.16,0.81-0.71,1.5-1.47,1.82l-3.8,1.63l2.92,2.93c0.58,0.59,0.84,1.43,0.68,2.24l-4.71,24.31c-0.18,0.93-0.86,1.67-1.77,1.93
		C40.41,120.96,40.18,121,39.96,121z M47.56,66.14c-7.25,4.98-12.38,12.68-14.07,21.4s0.19,17.79,5.05,25.11l3.42-17.65l-4.58-4.6
		c-0.58-0.59-0.84-1.43-0.68-2.24c0.16-0.81,0.71-1.5,1.47-1.82l5.97-2.56L47.56,66.14z M108.3,74.85c-0.16,0-0.32-0.02-0.48-0.05
		l-24.31-4.71c-0.81-0.16-1.5-0.71-1.82-1.47l-1.63-3.8l-2.93,2.92c-0.59,0.58-1.43,0.84-2.24,0.68L50.58,63.7
		c-0.93-0.18-1.67-0.86-1.93-1.77s0.02-1.88,0.71-2.52c7.18-6.61,16.49-10.25,26.19-10.25c2.47,0,4.96,0.24,7.4,0.71
		c12.02,2.33,22.33,10.33,27.6,21.4c0.41,0.85,0.3,1.86-0.28,2.61C109.8,74.5,109.07,74.85,108.3,74.85z M85.76,65.43l17.65,3.42
		c-4.98-7.25-12.68-12.38-21.4-14.07c-2.13-0.41-4.3-0.62-6.45-0.62c-6.69,0-13.16,1.99-18.67,5.67l17.66,3.42l4.6-4.58
		c0.59-0.58,1.43-0.84,2.24-0.68c0.81,0.16,1.5,0.71,1.82,1.47L85.76,65.43z"/>
</g>
<path id="Sand" class="st5" d="M16.97,167.05c-1.06,0-2.04-0.68-2.38-1.74c-0.42-1.32,0.31-2.72,1.62-3.14
	c10.43-3.33,21.26-5.59,32.18-6.69c7.04-0.71,14.28-0.96,21.24-0.74c6.62,0.21,13.26,0.82,19.74,1.84
	c4.71,0.74,9.48,1.71,14.18,2.89c1.34,0.34,2.15,1.7,1.81,3.03s-1.69,2.15-3.03,1.81c-4.55-1.15-9.17-2.09-13.73-2.8
	c-6.28-0.98-12.71-1.58-19.12-1.78c-6.74-0.21-13.76,0.03-20.58,0.72c-10.58,1.07-21.06,3.25-31.16,6.48
	C17.48,167.01,17.22,167.05,16.97,167.05z"/>
</svg>
