<?xml version="1.0" encoding="utf-8"?>
<!-- Generator: Adobe Illustrator 23.0.1, SVG Export Plug-In . SVG Version: 6.00 Build 0)  -->
<svg version="1.1" id="Pineapple" xmlns="http://www.w3.org/2000/svg" xmlns:xlink="http://www.w3.org/1999/xlink" x="0px" y="0px"
	 viewBox="0 0 94.09 173.83" style="enable-background:new 0 0 94.09 173.83;" xml:space="preserve">
<style type="text/css">
	.st0{fill:#FFC83A;}
	.st1{fill:#3FB763;}
	.st2{fill:#32964F;}
	.st3{fill:#FFD16D;}
	.st4{fill:#E0A626;}
	.st5{fill:#E0A526;}
</style>
<path id="Background_1_" class="st0" d="M86.21,116.71c0,3.86-0.06,7.81-0.3,11.73c-0.08,1.32-0.18,2.64-0.3,3.96
	c-0.61,6.6-1.82,13.02-4.19,18.68c-2.53,6.09-6.39,11.29-12.24,14.89c-5.4,3.33-12.48,5.31-21.78,5.35
	c-0.12,0.01-0.24,0.01-0.36,0.01s-0.24,0-0.35-0.01c-9.3-0.04-16.39-2.01-21.78-5.34c-5.85-3.61-9.71-8.81-12.24-14.9
	c-2.37-5.66-3.58-12.09-4.2-18.7c-0.12-1.31-0.22-2.62-0.3-3.93c-0.23-3.92-0.3-7.88-0.3-11.74c0-3.86,0.06-7.82,0.3-11.75
	c0.08-1.32,0.18-2.63,0.3-3.94c0.62-6.61,1.83-13.03,4.2-18.69c2.53-6.08,6.39-11.29,12.24-14.89c5.39-3.33,12.48-5.3,21.79-5.34
	c0.11-0.01,0.22-0.01,0.34-0.01s0.23,0,0.35,0.01c9.3,0.04,16.39,2.01,21.78,5.35h0.01c5.84,3.6,9.7,8.8,12.24,14.88
	c2.36,5.66,3.58,12.08,4.19,18.68c0.13,1.32,0.22,2.64,0.3,3.96C86.15,108.89,86.21,112.85,86.21,116.71z"/>
<g id="Crown">
	<path id="Leaves_x5F_Fill" class="st1" d="M49.18,62.83c-0.82-0.04-1.65-0.06-2.49-0.06c-0.12-0.01-0.23-0.01-0.35-0.01
		c-0.12,0-0.23,0-0.34,0.01c-1.1,0.01-2.17,0.04-3.2,0.1h-0.01c-0.29,0.02-0.57,0.03-0.85,0.06c-0.31-0.77-0.62-1.54-0.9-2.33
		c-0.16-0.45-0.32-0.9-0.46-1.34c-0.34-0.98-0.66-1.98-0.94-2.99c-0.14-0.5-0.28-0.98-0.42-1.48c0-0.02-0.01-0.03-0.02-0.06
		c-0.13-0.5-0.26-1-0.38-1.49c-0.14-0.59-0.27-1.19-0.4-1.79c-0.21-0.94-0.38-1.89-0.54-2.85c-0.07-0.42-0.14-0.85-0.21-1.28
		c-0.03-0.27-0.07-0.54-0.11-0.82c-0.16-1.14-0.29-2.29-0.38-3.45c-0.05-0.57-0.09-1.14-0.12-1.72c-0.03-0.42-0.05-0.82-0.06-1.24
		c-0.02-0.48-0.04-0.97-0.05-1.45c-0.01-0.48-0.02-0.97-0.02-1.45c0-1.06,0.02-2.1,0.07-3.14c0.02-0.53,0.06-1.05,0.09-1.56
		c0.04-0.58,0.09-1.16,0.14-1.73l0.14-1.37c0.06-0.47,0.11-0.94,0.18-1.4c0.01-0.1,0.02-0.19,0.04-0.29
		c0.06-0.46,0.13-0.91,0.2-1.37c0.08-0.5,0.16-0.99,0.26-1.49v-0.02c1.46-8,4.32-15.52,8.3-22.29c3.98,6.77,6.83,14.28,8.3,22.29
		c0.73,4.01,1.11,8.15,1.11,12.36c0,0.49-0.01,0.98-0.02,1.45c-0.01,0.49-0.02,0.98-0.05,1.45c-0.02,0.42-0.03,0.82-0.06,1.24
		c-0.03,0.58-0.07,1.15-0.12,1.72c-0.1,1.16-0.22,2.31-0.38,3.45c-0.04,0.28-0.08,0.55-0.11,0.82c-0.07,0.43-0.14,0.86-0.21,1.28
		c-0.16,0.96-0.34,1.91-0.54,2.85c-0.14,0.6-0.26,1.2-0.41,1.79c-0.12,0.5-0.25,1-0.38,1.49c-0.01,0.02-0.02,0.04-0.02,0.06
		c-0.14,0.5-0.27,0.98-0.42,1.48c-0.29,1.01-0.6,2.01-0.94,2.99c-0.14,0.45-0.3,0.9-0.46,1.34c-0.29,0.79-0.59,1.57-0.9,2.33
		C50.23,62.87,49.71,62.84,49.18,62.83 M70.04,6.67c-6.06,5-11.31,11.09-15.41,18.12c0.73,4.01,1.11,8.15,1.11,12.36
		c0,0.49-0.01,0.98-0.02,1.45c-0.01,0.49-0.02,0.98-0.05,1.45c-0.02,0.42-0.03,0.82-0.06,1.24c-0.03,0.58-0.07,1.15-0.12,1.72
		c-0.1,1.16-0.23,2.31-0.38,3.45c-0.04,0.28-0.08,0.55-0.11,0.82c-0.07,0.43-0.14,0.86-0.21,1.28c-0.16,0.96-0.34,1.91-0.54,2.85
		c-0.14,0.6-0.26,1.2-0.41,1.79c-0.12,0.5-0.25,1-0.38,1.49c-0.01,0.02-0.02,0.04-0.02,0.06c-0.14,0.5-0.27,0.98-0.42,1.48
		c-0.29,1.01-0.6,2.01-0.94,2.99c-0.14,0.45-0.3,0.9-0.46,1.34c-0.29,0.79-0.59,1.57-0.9,2.33c0.54,0.03,1.06,0.08,1.57,0.14
		c0.89,0.08,1.75,0.19,2.59,0.31c5.12-6.02,9.28-13.04,12.14-20.9c1.44-3.96,2.49-7.98,3.17-12C71.58,22.44,71.47,14.4,70.04,6.67z
		 M70.21,30.46c-0.68,4.02-1.73,8.03-3.17,12c-2.86,7.87-7.02,14.88-12.14,20.9c0.76,0.12,1.5,0.26,2.23,0.41
		c1.25,0.26,2.46,0.56,3.61,0.91c5.53-3.59,10.62-8.05,15.08-13.36c8.13-9.69,13.11-20.97,15.06-32.6
		C83.49,21.34,76.47,25.27,70.21,30.46z M41.04,60.58c-0.16-0.45-0.32-0.9-0.46-1.34c-0.34-0.98-0.66-1.98-0.94-2.99
		c-0.14-0.5-0.28-0.98-0.42-1.48c0-0.02-0.01-0.03-0.02-0.06c-0.13-0.5-0.26-1-0.38-1.49c-0.14-0.59-0.27-1.19-0.4-1.79
		c-0.21-0.94-0.38-1.89-0.54-2.85c-0.07-0.42-0.14-0.85-0.21-1.28c-0.03-0.27-0.07-0.54-0.11-0.82c-0.15-1.14-0.28-2.29-0.38-3.45
		c-0.05-0.57-0.09-1.14-0.12-1.72c-0.03-0.42-0.05-0.82-0.06-1.24c-0.02-0.48-0.04-0.97-0.05-1.45c-0.01-0.48-0.02-0.97-0.02-1.45
		c0-1.06,0.02-2.1,0.07-3.14c0.02-0.53,0.06-1.05,0.09-1.56c0.04-0.58,0.09-1.16,0.14-1.73l0.14-1.37c0.06-0.47,0.11-0.94,0.18-1.4
		c0.01-0.1,0.02-0.19,0.04-0.29c0.06-0.46,0.13-0.91,0.2-1.37c0.08-0.5,0.16-0.99,0.26-1.49v-0.02c-4.1-7.03-9.35-13.13-15.41-18.12
		c-1.43,7.73-1.53,15.77-0.17,23.79c0.68,4.02,1.73,8.03,3.17,12c2.87,7.87,7.02,14.88,12.15,20.91c0.63-0.1,1.28-0.18,1.93-0.26
		c0.73-0.08,1.46-0.15,2.22-0.2C41.63,62.15,41.32,61.37,41.04,60.58z M25.63,42.46c-1.44-3.96-2.49-7.98-3.17-12
		c-6.26-5.2-13.28-9.12-20.67-11.74c1.95,11.62,6.93,22.91,15.06,32.6c4.46,5.31,9.54,9.77,15.07,13.36c0.99-0.3,2.03-0.57,3.1-0.8
		c0.9-0.2,1.81-0.37,2.77-0.5C32.65,57.34,28.5,50.32,25.63,42.46z M55.34,26.83c-1.46-8.01-4.32-15.53-8.3-22.3
		c-3.98,6.77-6.83,14.29-8.29,22.3v0.02c-0.1,0.49-0.18,0.99-0.26,1.49c-0.07,0.45-0.14,0.91-0.2,1.36
		c-0.02,0.1-0.03,0.19-0.04,0.29c-0.06,0.46-0.12,0.93-0.18,1.4l-0.14,1.37c-0.05,0.56-0.09,1.14-0.13,1.72
		c-0.04,0.51-0.07,1.03-0.09,1.56c-0.05,1.04-0.07,2.09-0.07,3.14c0,0.49,0,0.98,0.01,1.46c0.01,0.49,0.03,0.97,0.05,1.45
		c0.02,0.42,0.03,0.83,0.06,1.24c0.04,0.58,0.08,1.15,0.12,1.72c0,0.05,0.01,0.1,0.01,0.15c0.02-0.15,0.03-0.29,0.04-0.43l0.14-1.37
		c0.06-0.47,0.12-0.94,0.18-1.4c0.01-0.1,0.02-0.19,0.04-0.29c0.06-0.45,0.13-0.91,0.2-1.36c0.08-0.5,0.16-1,0.26-1.49v-0.03
		c1.46-8,4.31-15.52,8.29-22.29c3.98,6.77,6.84,14.29,8.3,22.29c0.38,2.09,0.66,4.21,0.85,6.35c0-0.04,0.01-0.09,0.01-0.13
		c0.05-0.57,0.09-1.14,0.12-1.72c0.04-0.41,0.05-0.82,0.07-1.24c0.02-0.48,0.04-0.96,0.05-1.45c0-0.48,0.01-0.97,0.01-1.46
		C56.45,34.97,56.07,30.84,55.34,26.83z M70.92,30.46c-0.68,4.02-1.73,8.03-3.17,11.99c-2.87,7.87-7.02,14.89-12.15,20.91
		c-0.83-0.12-1.7-0.24-2.59-0.32c-0.52-0.05-1.03-0.1-1.57-0.13c0.31-0.77,0.62-1.54,0.9-2.34c0.15-0.41,0.3-0.84,0.44-1.26
		c3.68-5.05,6.72-10.69,8.96-16.86c1.44-3.96,2.5-7.97,3.17-11.99c1.09-6.35,1.25-12.72,0.56-18.94c1.67-1.71,3.44-3.33,5.28-4.85
		C72.18,14.4,72.29,22.44,70.92,30.46z M90.88,18.72c-1.95,11.62-6.93,22.91-15.06,32.6c-4.46,5.32-9.55,9.78-15.08,13.36
		c-1.15-0.35-2.36-0.65-3.62-0.91c-0.26-0.05-0.53-0.11-0.8-0.15c4.92-3.39,9.47-7.49,13.5-12.3c7.5-8.94,12.32-19.23,14.54-29.9
		C86.49,20.4,88.67,19.5,90.88,18.72z M23.61,6.67c1.84,1.52,3.61,3.14,5.28,4.85c-0.69,6.22-0.53,12.59,0.56,18.94
		c0.67,4.02,1.73,8.03,3.17,11.99c2.24,6.17,5.28,11.81,8.96,16.86c0.14,0.42,0.29,0.85,0.44,1.26c0.28,0.8,0.59,1.57,0.9,2.34
		c-0.54,0.03-1.05,0.08-1.57,0.13c-0.89,0.08-1.76,0.2-2.59,0.32c-5.13-6.02-9.28-13.04-12.15-20.91
		c-1.44-3.96-2.49-7.97-3.17-11.99C22.07,22.44,22.18,14.4,23.61,6.67z M10.01,21.42c2.22,10.67,7.04,20.96,14.54,29.9
		c4.03,4.81,8.58,8.91,13.5,12.3c-0.27,0.04-0.54,0.1-0.8,0.15c-1.26,0.26-2.47,0.56-3.62,0.91c-5.53-3.58-10.62-8.04-15.08-13.36
		c-8.13-9.69-13.11-20.98-15.06-32.6C5.7,19.5,7.88,20.4,10.01,21.42z"/>
	<path id="Leaves_x5F_Oultine" class="st2" d="M42.65,65.41c-1.01,0-1.93-0.61-2.31-1.56c-0.32-0.8-0.64-1.6-0.94-2.42
		c-0.17-0.49-0.34-0.96-0.49-1.43c-0.32-0.92-0.65-1.94-0.97-3.07c-0.14-0.5-0.28-1-0.42-1.5c0-0.01,0-0.02-0.01-0.02
		c-0.01-0.02-0.01-0.05-0.02-0.07c-0.13-0.51-0.26-1.02-0.38-1.53c-0.15-0.6-0.28-1.2-0.4-1.81c-0.2-0.92-0.39-1.9-0.57-3.01
		l-0.21-1.28c-0.01-0.04-0.01-0.08-0.02-0.12c-0.02-0.21-0.05-0.41-0.08-0.62l-0.02-0.15c-0.17-1.19-0.3-2.4-0.4-3.6
		c-0.05-0.59-0.09-1.19-0.12-1.78c-0.03-0.4-0.05-0.83-0.07-1.28c-0.02-0.48-0.04-1-0.05-1.51c-0.01-0.53-0.02-1.01-0.02-1.49
		c0-1.09,0.03-2.19,0.08-3.26c0.02-0.54,0.06-1.07,0.09-1.6c0.04-0.61,0.09-1.2,0.14-1.78l0.15-1.42c0.06-0.5,0.12-0.96,0.18-1.43
		c0.01-0.12,0.03-0.24,0.05-0.36c0.06-0.45,0.13-0.91,0.2-1.36c0.09-0.55,0.17-1.02,0.25-1.49c0.01-0.04,0.01-0.08,0.02-0.12
		c1.49-8.17,4.39-15.94,8.6-23.11C45.34,0.47,46.16,0,47.05,0s1.71,0.47,2.16,1.23c4.22,7.17,7.11,14.95,8.6,23.11
		c0.76,4.22,1.15,8.52,1.15,12.81c0,0.5-0.01,1.01-0.02,1.5c-0.01,0.51-0.03,1.03-0.05,1.54c-0.02,0.42-0.03,0.86-0.07,1.31
		c-0.03,0.55-0.07,1.14-0.12,1.74c-0.1,1.2-0.23,2.41-0.4,3.59l-0.02,0.11c-0.03,0.22-0.06,0.44-0.09,0.65
		c0,0.04-0.01,0.09-0.02,0.13l-0.21,1.28c-0.17,0.99-0.35,1.98-0.56,2.96l-0.13,0.58c-0.1,0.43-0.19,0.86-0.29,1.28
		c-0.12,0.51-0.25,1.02-0.38,1.53c-0.01,0.03-0.01,0.05-0.02,0.08c0,0,0,0.01,0,0.01c-0.14,0.51-0.28,1.01-0.43,1.51
		c-0.32,1.12-0.64,2.14-0.99,3.12c-0.12,0.39-0.28,0.83-0.44,1.28c-0.33,0.91-0.65,1.72-0.97,2.51c-0.41,1.01-1.43,1.64-2.51,1.55
		c-0.46-0.04-0.94-0.07-1.42-0.08l0.09-2.91l-0.14,2.91c-0.78-0.04-1.58-0.05-2.4-0.06c-0.05,0-0.1,0-0.15-0.01
		c-0.06,0-0.12,0-0.18,0l-0.16,0c-0.05,0-0.12,0.01-0.17,0.01c-1.05,0.01-2.09,0.04-3.08,0.09c-0.01,0-0.03,0-0.04,0
		c-0.25,0.01-0.49,0.03-0.74,0.05C42.79,65.41,42.72,65.41,42.65,65.41z M47.48,60.26c0.78,0.01,1.54,0.02,2.29,0.06
		c0.07-0.2,0.15-0.4,0.22-0.59c0.16-0.46,0.3-0.85,0.43-1.25c0.33-0.95,0.63-1.88,0.92-2.91c0.14-0.48,0.27-0.95,0.4-1.43
		c0.01-0.04,0.02-0.07,0.03-0.11c0.12-0.46,0.24-0.93,0.35-1.4c0.1-0.39,0.18-0.79,0.27-1.19l0.13-0.56
		c0.19-0.88,0.35-1.79,0.51-2.71l0.2-1.21c0.03-0.24,0.06-0.49,0.1-0.73c0.17-1.18,0.29-2.3,0.38-3.4c0.05-0.55,0.08-1.1,0.12-1.65
		c0.03-0.44,0.05-0.81,0.06-1.19c0.02-0.48,0.04-0.94,0.05-1.4c0.01-0.47,0.02-0.94,0.02-1.41c0-3.98-0.36-7.99-1.07-11.91
		c-1.11-6.1-3.07-11.97-5.84-17.5c-2.75,5.5-4.7,11.33-5.82,17.4c-0.01,0.05-0.02,0.11-0.02,0.16c-0.09,0.46-0.16,0.91-0.23,1.37
		c-0.08,0.49-0.14,0.9-0.19,1.31c0,0.04-0.01,0.07-0.02,0.11l-0.02,0.1c0,0.05-0.01,0.07-0.01,0.12c-0.06,0.45-0.12,0.9-0.17,1.35
		l-0.14,1.34c-0.04,0.5-0.09,1.07-0.13,1.64c-0.03,0.48-0.06,0.99-0.08,1.5c-0.05,1-0.07,2.01-0.07,3.03c0,0.45,0.01,0.91,0.01,1.35
		c0.01,0.52,0.02,0.98,0.05,1.43c0.02,0.41,0.03,0.79,0.06,1.17c0.03,0.6,0.07,1.15,0.12,1.7c0.09,1.11,0.22,2.23,0.37,3.32
		l0.02,0.14c0.03,0.23,0.06,0.46,0.09,0.68l0.2,1.21c0.17,1.04,0.34,1.93,0.52,2.73c0.13,0.62,0.25,1.18,0.39,1.74
		c0.12,0.48,0.24,0.97,0.36,1.45c0,0.01,0.01,0.02,0.01,0.03h0c0.13,0.48,0.27,0.96,0.41,1.45c0.3,1.04,0.59,1.97,0.9,2.86
		c0.16,0.48,0.31,0.9,0.46,1.33c0.07,0.19,0.14,0.39,0.21,0.58c0.75-0.03,1.52-0.05,2.3-0.05C46.9,60.25,47.19,60.25,47.48,60.26z
		 M55.61,65.86c-0.12,0-0.24-0.01-0.35-0.02c-0.98-0.14-1.74-0.23-2.46-0.3c-0.52-0.06-1-0.1-1.5-0.13
		c-0.8-0.05-1.54-0.48-1.97-1.16c-0.43-0.68-0.51-1.53-0.2-2.27c0.3-0.74,0.59-1.49,0.87-2.25c0.16-0.46,0.3-0.85,0.43-1.25
		c0.33-0.95,0.63-1.88,0.92-2.91c0.14-0.48,0.27-0.95,0.4-1.43c0.01-0.04,0.02-0.07,0.03-0.11c0.12-0.46,0.24-0.93,0.35-1.4
		c0.1-0.39,0.18-0.79,0.27-1.19l0.13-0.57c0.19-0.87,0.35-1.79,0.51-2.71l0.2-1.21c0.03-0.24,0.06-0.49,0.1-0.73
		c0.16-1.18,0.28-2.3,0.38-3.42c0.04-0.53,0.08-1.08,0.11-1.64c0.03-0.44,0.05-0.81,0.06-1.19c0.02-0.48,0.04-0.94,0.05-1.4
		c0.01-0.47,0.02-0.94,0.02-1.41c0-3.98-0.36-7.99-1.07-11.91c-0.11-0.59,0-1.19,0.3-1.71c4.19-7.18,9.57-13.5,15.98-18.79
		c0.68-0.56,1.62-0.72,2.45-0.42c0.83,0.3,1.44,1.02,1.6,1.89c1.51,8.17,1.57,16.47,0.17,24.66c-0.71,4.19-1.82,8.37-3.29,12.43
		c-2.9,7.98-7.14,15.27-12.59,21.67C57.03,65.54,56.33,65.86,55.61,65.86z M56.58,55.42c0,0,0,0.01,0,0.01
		c-0.14,0.51-0.28,1.01-0.43,1.51c-0.3,1.05-0.6,2.01-0.92,2.93c4.33-5.49,7.75-11.62,10.16-18.27c1.37-3.78,2.4-7.67,3.06-11.56
		c1.04-6.13,1.21-12.32,0.51-18.46c-4.27,4.04-7.96,8.63-11,13.69c0.66,3.92,0.99,7.91,0.99,11.88c0,0.5-0.01,1.01-0.02,1.5
		c-0.01,0.51-0.03,1.03-0.05,1.54c-0.02,0.42-0.03,0.86-0.07,1.31c-0.03,0.55-0.07,1.14-0.12,1.74c-0.11,1.2-0.24,2.4-0.4,3.57
		l-0.02,0.12c-0.03,0.22-0.06,0.44-0.09,0.65c0,0.04-0.01,0.09-0.02,0.13l-0.21,1.28c-0.17,0.99-0.35,1.98-0.56,2.96l-0.13,0.58
		c-0.1,0.43-0.19,0.86-0.29,1.28c-0.12,0.51-0.25,1.02-0.38,1.53C56.6,55.36,56.59,55.39,56.58,55.42z M61.45,67.18
		c-0.25,0-0.49-0.04-0.73-0.11c-1.06-0.33-2.2-0.61-3.38-0.85c-0.7-0.15-1.4-0.27-2.12-0.39c-0.89-0.14-1.64-0.75-1.95-1.6
		c-0.31-0.85-0.15-1.8,0.44-2.49c5.06-5.95,9-12.72,11.7-20.14c1.37-3.78,2.4-7.67,3.06-11.56c0.1-0.59,0.41-1.13,0.87-1.51
		c6.38-5.3,13.59-9.4,21.43-12.18c0.84-0.3,1.76-0.13,2.44,0.44c0.68,0.57,1,1.46,0.86,2.33c-2.08,12.42-7.48,24.1-15.61,33.79
		c-4.53,5.4-9.79,10.06-15.64,13.86C62.4,67.04,61.93,67.18,61.45,67.18z M60.12,61.72c0.31,0.08,0.61,0.15,0.91,0.24
		c5.05-3.41,9.62-7.52,13.58-12.25c6.58-7.84,11.24-17.1,13.61-26.98c-5.39,2.34-10.42,5.38-15,9.08c-0.71,3.88-1.76,7.75-3.13,11.5
		C67.68,49.97,64.33,56.14,60.12,61.72z M38.49,65.87c-0.73,0-1.42-0.32-1.9-0.88C31.15,58.6,26.91,51.31,24,43.32
		c-1.48-4.07-2.58-8.25-3.29-12.44c-1.4-8.19-1.34-16.49,0.17-24.66c0.16-0.87,0.77-1.59,1.6-1.89c0.83-0.31,1.76-0.14,2.45,0.42
		c6.41,5.29,11.79,11.61,15.98,18.79c0.22,0.38,0.34,0.82,0.34,1.26c0,0.16-0.02,0.34-0.05,0.5c-0.09,0.46-0.16,0.91-0.23,1.37
		c-0.08,0.49-0.14,0.9-0.19,1.31c0,0.04-0.01,0.07-0.02,0.11l-0.02,0.1c0,0.05-0.01,0.07-0.01,0.12c-0.06,0.45-0.12,0.9-0.17,1.35
		l-0.14,1.34c-0.04,0.5-0.09,1.07-0.13,1.64c-0.03,0.48-0.06,0.99-0.08,1.5c-0.05,1-0.07,2.01-0.07,3.03c0,0.45,0.01,0.91,0.01,1.36
		c0.01,0.52,0.02,0.98,0.05,1.43c0.02,0.41,0.03,0.79,0.06,1.17c0.03,0.6,0.07,1.15,0.12,1.7c0.1,1.11,0.22,2.23,0.37,3.33
		l0.02,0.12c0.03,0.23,0.06,0.46,0.09,0.68l0.2,1.21c0.17,1.04,0.34,1.93,0.52,2.73c0.13,0.62,0.25,1.19,0.39,1.74
		c0.12,0.48,0.24,0.97,0.36,1.45c0,0.01,0.01,0.02,0.01,0.03h0c0.13,0.48,0.27,0.96,0.41,1.45c0.3,1.04,0.59,1.97,0.9,2.86
		c0.16,0.48,0.31,0.9,0.46,1.33c0.27,0.75,0.56,1.5,0.87,2.23c0.3,0.75,0.23,1.59-0.2,2.27c-0.43,0.68-1.16,1.11-1.96,1.17
		c-0.72,0.05-1.42,0.11-2.11,0.19c-0.62,0.07-1.23,0.15-1.83,0.24C38.75,65.86,38.62,65.87,38.49,65.87z M25.13,11.59
		c-0.71,6.14-0.54,12.33,0.51,18.45c0.66,3.9,1.69,7.79,3.06,11.57c2.43,6.66,5.84,12.79,10.16,18.27
		c-0.31-0.89-0.61-1.87-0.92-2.94c-0.14-0.5-0.28-1-0.42-1.5c0-0.01,0-0.02-0.01-0.02c-0.01-0.02-0.01-0.05-0.02-0.07
		c-0.13-0.51-0.26-1.02-0.39-1.53c-0.15-0.6-0.27-1.2-0.4-1.81c-0.2-0.92-0.39-1.9-0.57-3.01l-0.21-1.28
		c-0.01-0.04-0.01-0.08-0.02-0.12c-0.02-0.21-0.05-0.41-0.08-0.62l-0.02-0.15c-0.16-1.19-0.29-2.39-0.4-3.58
		c-0.05-0.6-0.09-1.2-0.13-1.8c-0.03-0.4-0.05-0.83-0.07-1.28c-0.02-0.48-0.04-1-0.05-1.51c-0.01-0.53-0.02-1.01-0.02-1.49
		c0-1.09,0.03-2.19,0.08-3.26c0.02-0.54,0.06-1.07,0.09-1.6c0.04-0.61,0.09-1.2,0.14-1.78l0.15-1.42c0.06-0.5,0.12-0.96,0.18-1.43
		c0.01-0.12,0.03-0.24,0.05-0.36c0.06-0.45,0.13-0.91,0.2-1.36c0.04-0.24,0.07-0.46,0.11-0.68C33.08,20.22,29.4,15.63,25.13,11.59z
		 M32.63,67.17c-0.48,0-0.95-0.14-1.36-0.4c-5.82-3.78-11.08-8.44-15.62-13.84C7.52,43.24,2.12,31.55,0.03,19.13
		c-0.15-0.87,0.18-1.76,0.86-2.33c0.68-0.57,1.61-0.74,2.44-0.44c7.84,2.78,15.05,6.88,21.43,12.18c0.46,0.38,0.77,0.92,0.87,1.51
		c0.66,3.89,1.69,7.78,3.06,11.56c2.71,7.43,6.65,14.21,11.7,20.14c0.59,0.69,0.76,1.65,0.43,2.51c-0.32,0.85-1.08,1.46-1.98,1.59
		c-0.87,0.12-1.74,0.28-2.57,0.47c-0.97,0.21-1.95,0.46-2.93,0.76C33.11,67.14,32.87,67.17,32.63,67.17z M5.87,22.73
		c2.37,9.88,7.03,19.14,13.61,26.98c3.97,4.73,8.54,8.85,13.57,12.25c0.31-0.08,0.61-0.16,0.92-0.24c-4.2-5.57-7.54-11.74-9.97-18.4
		c-1.37-3.77-2.42-7.63-3.13-11.51C16.29,28.11,11.26,25.07,5.87,22.73z"/>
</g>
<g id="Body">
	<path id="Highlight_2_" class="st3" d="M16.91,74.16c12.76-10.59,31.23-3.38,45.57,12.26c17,18.55,23.25,56.34,12.2,74.65
		c2.68-2.89,4.72-6.27,6.26-9.98c2.36-5.66,3.58-12.09,4.2-18.7c0.12-1.31,0.22-2.62,0.3-3.93c0.23-3.93,0.29-7.88,0.29-11.74
		c0-3.86-0.06-7.82-0.29-11.75c-0.08-1.32-0.18-2.63-0.31-3.95C84.52,94.41,83.3,88,80.94,82.34c-2.54-6.09-6.39-11.29-12.24-14.9
		c-5.39-3.33-12.48-5.29-21.79-5.33c-0.11-0.01-0.23-0.01-0.35-0.01s-0.23,0-0.35,0.01c-9.3,0.04-16.38,2-21.78,5.34h-0.01
		C21.42,69.3,18.95,71.56,16.91,74.16z"/>
	<path id="Outline_1_" class="st4" d="M46.69,173.83c-0.15,0-0.29,0-0.43-0.01c-9.22-0.05-16.97-1.97-23.02-5.71
		c-5.85-3.61-10.31-9.01-13.23-16.07c-2.22-5.3-3.65-11.66-4.38-19.42c-0.12-1.34-0.22-2.68-0.3-4.02c-0.21-3.47-0.3-7.25-0.3-11.89
		c0-4.64,0.1-8.42,0.3-11.9c0.09-1.53,0.19-2.81,0.31-4.04c0.72-7.73,2.15-14.09,4.38-19.41c2.94-7.05,7.39-12.46,13.23-16.06
		c6.04-3.74,13.79-5.66,23.02-5.71c0.27-0.01,0.56-0.02,0.85,0c9.16,0.05,16.87,1.95,22.9,5.65c0.04,0.02,0.08,0.05,0.12,0.07
		c5.84,3.6,10.3,9,13.24,16.05c2.23,5.35,3.66,11.71,4.37,19.41c0.12,1.21,0.22,2.5,0.31,4.03c0.21,3.46,0.3,7.24,0.3,11.89
		c0,4.65-0.1,8.42-0.3,11.88c-0.09,1.54-0.19,2.83-0.31,4.05c-0.71,7.72-2.14,14.07-4.37,19.4c-2.93,7.05-7.39,12.46-13.23,16.06
		c-6.06,3.75-13.81,5.67-23.01,5.72C46.98,173.83,46.83,173.83,46.69,173.83z M46.6,64.59c-0.03,0-0.06,0-0.08,0
		c-0.05,0-0.11,0.01-0.16,0.01c-8.33,0.04-15.22,1.71-20.49,4.97c-5,3.08-8.68,7.57-11.25,13.73c-2.03,4.85-3.34,10.72-4.02,17.96
		c-0.11,1.17-0.21,2.4-0.3,3.86c-0.2,3.37-0.29,7.06-0.29,11.6c0,4.54,0.09,8.23,0.29,11.59c0.08,1.28,0.17,2.57,0.29,3.85
		c0.68,7.25,2,13.12,4.02,17.96c2.55,6.16,6.23,10.65,11.24,13.74c5.27,3.26,12.16,4.93,20.48,4.97c0.06,0,0.12,0,0.17,0.01l0.17,0
		c0.06,0,0.12,0,0.19,0c0.05,0,0.11-0.01,0.16-0.01c8.3-0.04,15.19-1.71,20.48-4.97c5.01-3.08,8.68-7.57,11.24-13.73
		c2.03-4.86,3.34-10.73,4.01-17.95c0.11-1.18,0.21-2.4,0.3-3.88c0.2-3.35,0.29-7.04,0.29-11.58c0-4.55-0.09-8.24-0.29-11.59
		c-0.09-1.47-0.18-2.7-0.3-3.86c-0.66-7.21-1.97-13.08-4.01-17.96c-2.54-6.11-6.19-10.57-11.13-13.65
		c-0.04-0.02-0.08-0.05-0.12-0.07c-5.27-3.26-12.16-4.94-20.48-4.97c-0.05,0-0.1,0-0.15-0.01c-0.06,0-0.12,0-0.19,0
		C46.66,64.59,46.63,64.59,46.6,64.59z"/>
	<path id="Pattern" class="st5" d="M47.05,173.07c-0.45,0-0.9-0.17-1.24-0.51L6.87,133.62c-0.68-0.68-0.68-1.79,0-2.47
		c0.68-0.68,1.79-0.68,2.47,0l38.94,38.94c0.68,0.68,0.68,1.79,0,2.47C47.94,172.9,47.49,173.07,47.05,173.07z M70.07,167.21
		c0.68-0.68,0.68-1.79,0-2.47L9.05,103.72c-0.68-0.68-1.79-0.68-2.47,0c-0.68,0.68-0.68,1.79,0,2.47l61.01,61.01
		c0.34,0.34,0.79,0.51,1.24,0.51S69.72,167.55,70.07,167.21z M82.3,152.32c0.68-0.68,0.68-1.79,0-2.47L13.55,81.1
		c-0.68-0.68-1.79-0.68-2.47,0c-0.68,0.68-0.68,1.79,0,2.47l68.75,68.75c0.34,0.34,0.79,0.51,1.24,0.51S81.96,152.66,82.3,152.32z
		 M86.8,129.68c0.68-0.68,0.68-1.79,0-2.47L25.79,66.2c-0.68-0.68-1.79-0.68-2.47,0c-0.68,0.68-0.68,1.79,0,2.47l61.01,61.01
		c0.34,0.34,0.79,0.51,1.24,0.51S86.45,130.03,86.8,129.68z M86.49,102.25c0.68-0.68,0.68-1.79,0-2.47L47.58,60.86
		c-0.68-0.68-1.79-0.68-2.47,0c-0.68,0.68-0.68,1.79,0,2.47l38.91,38.91c0.34,0.34,0.79,0.51,1.24,0.51
		C85.7,102.76,86.15,102.59,86.49,102.25z M9.36,102.26l38.59-38.58l0.34-0.35c0.68-0.69,0.66-1.8-0.03-2.48
		c-0.69-0.68-1.8-0.66-2.48,0.03L6.88,99.78c-0.68,0.68-0.68,1.79,0,2.47c0.34,0.34,0.79,0.51,1.24,0.51
		C8.57,102.77,9.01,102.6,9.36,102.26z M9.05,129.69l61.01-61.01c0.68-0.68,0.68-1.79,0-2.47c-0.68-0.68-1.79-0.68-2.48,0l-61,61
		c-0.68,0.68-0.68,1.79,0,2.47c0.34,0.34,0.79,0.51,1.24,0.51C8.26,130.2,8.71,130.03,9.05,129.69z M13.55,152.32l68.75-68.75
		c0.68-0.68,0.68-1.79,0-2.48c-0.68-0.68-1.79-0.68-2.47,0l-68.75,68.75c-0.68,0.68-0.68,1.79,0,2.48c0.34,0.34,0.79,0.51,1.24,0.51
		C12.76,152.83,13.21,152.66,13.55,152.32z M25.79,167.22l61.01-61.01c0.68-0.68,0.68-1.79,0-2.47c-0.68-0.68-1.79-0.68-2.48,0
		l-61,61.01c-0.68,0.68-0.68,1.79,0,2.47c0.34,0.34,0.79,0.51,1.24,0.51S25.45,167.56,25.79,167.22z M47.56,172.57l38.94-38.93
		c0.68-0.68,0.68-1.79,0-2.47c-0.68-0.68-1.79-0.68-2.48,0l-38.54,38.55l-0.36,0.35c-0.69,0.68-0.7,1.78-0.03,2.48
		c0.34,0.35,0.8,0.53,1.25,0.53C46.78,173.07,47.22,172.91,47.56,172.57z M51.83,103.14c0-2.83-2.3-5.14-5.14-5.14
		s-5.14,2.3-5.14,5.14s2.3,5.14,5.14,5.14S51.83,105.97,51.83,103.14z M48.83,103.14c0,1.18-0.96,2.14-2.14,2.14
		s-2.14-0.96-2.14-2.14S45.52,101,46.7,101S48.83,101.96,48.83,103.14z M78.98,103.14c0-2.83-2.3-5.14-5.14-5.14
		s-5.14,2.3-5.14,5.14s2.3,5.14,5.14,5.14S78.98,105.97,78.98,103.14z M75.98,103.14c0,1.18-0.96,2.14-2.14,2.14
		s-2.14-0.96-2.14-2.14s0.96-2.14,2.14-2.14S75.98,101.96,75.98,103.14z M78.98,130.28c0-2.83-2.3-5.14-5.14-5.14
		s-5.14,2.3-5.14,5.14s2.3,5.14,5.14,5.14S78.98,133.11,78.98,130.28z M75.98,130.28c0,1.18-0.96,2.14-2.14,2.14
		s-2.14-0.96-2.14-2.14s0.96-2.14,2.14-2.14S75.98,129.1,75.98,130.28z M24.62,130.28c0-2.83-2.3-5.14-5.14-5.14
		s-5.14,2.3-5.14,5.14s2.3,5.14,5.14,5.14S24.62,133.11,24.62,130.28z M21.62,130.28c0,1.18-0.96,2.14-2.14,2.14
		s-2.14-0.96-2.14-2.14s0.96-2.14,2.14-2.14S21.62,129.1,21.62,130.28z M24.62,103.14c0-2.83-2.3-5.14-5.14-5.14
		s-5.14,2.3-5.14,5.14s2.3,5.14,5.14,5.14S24.62,105.97,24.62,103.14z M21.62,103.14c0,1.18-0.96,2.14-2.14,2.14
		s-2.14-0.96-2.14-2.14S18.3,101,19.48,101S21.62,101.96,21.62,103.14z M24.62,76c0-2.83-2.3-5.14-5.14-5.14
		c-0.5,0-1,0.07-1.48,0.22c-0.79,0.24-1.24,1.08-1,1.87c0.24,0.79,1.07,1.24,1.87,1c0.2-0.06,0.41-0.09,0.62-0.09
		c1.18,0,2.14,0.96,2.14,2.14s-0.96,2.14-2.14,2.14s-2.14-0.96-2.14-2.14c0-0.83-0.67-1.5-1.5-1.5s-1.5,0.67-1.5,1.5
		c0,2.83,2.3,5.14,5.14,5.14S24.62,78.83,24.62,76z M24.62,157.42c0-2.83-2.3-5.14-5.14-5.14s-5.14,2.3-5.14,5.14
		c0,0.83,0.67,1.5,1.5,1.5s1.5-0.67,1.5-1.5c0-1.18,0.96-2.14,2.14-2.14s2.14,0.96,2.14,2.14s-0.96,2.14-2.14,2.14
		c-0.21,0-0.42-0.03-0.62-0.09c-0.79-0.24-1.63,0.21-1.87,1c-0.24,0.79,0.21,1.63,1,1.87c0.48,0.15,0.99,0.22,1.5,0.22
		C22.31,162.56,24.62,160.26,24.62,157.42z M75.45,162.31c0.79-0.26,1.22-1.11,0.96-1.89c-0.26-0.79-1.1-1.22-1.89-0.96
		c-0.21,0.07-0.44,0.11-0.67,0.11c-1.18,0-2.14-0.96-2.14-2.14s0.96-2.14,2.14-2.14s2.14,0.96,2.14,2.14c0,0.83,0.67,1.5,1.5,1.5
		c0.83,0,1.5-0.67,1.5-1.5c0-2.83-2.3-5.14-5.14-5.14s-5.14,2.3-5.14,5.14s2.3,5.14,5.14,5.14
		C74.39,162.56,74.93,162.48,75.45,162.31z M51.83,75.67c0-2.83-2.3-5.14-5.14-5.14s-5.14,2.3-5.14,5.14s2.3,5.14,5.14,5.14
		S51.83,78.51,51.83,75.67z M48.83,75.67c0,1.18-0.96,2.14-2.14,2.14s-2.14-0.96-2.14-2.14s0.96-2.14,2.14-2.14
		S48.83,74.5,48.83,75.67z M78.98,75.67c0-0.83-0.67-1.5-1.5-1.5c-0.83,0-1.5,0.67-1.5,1.5c0,1.18-0.96,2.14-2.14,2.14
		s-2.14-0.96-2.14-2.14s0.96-2.14,2.14-2.14c0.15,0,0.29,0.01,0.44,0.04c0.81,0.17,1.6-0.36,1.77-1.17c0.17-0.81-0.36-1.6-1.17-1.77
		c-0.34-0.07-0.69-0.11-1.04-0.11c-2.83,0-5.14,2.3-5.14,5.14s2.3,5.14,5.14,5.14S78.98,78.51,78.98,75.67z M51.83,130.28
		c0-2.83-2.3-5.14-5.14-5.14s-5.14,2.3-5.14,5.14s2.3,5.14,5.14,5.14S51.83,133.11,51.83,130.28z M48.83,130.28
		c0,1.18-0.96,2.14-2.14,2.14s-2.14-0.96-2.14-2.14s0.96-2.14,2.14-2.14S48.83,129.1,48.83,130.28z M51.83,157.42
		c0-2.83-2.3-5.14-5.14-5.14s-5.14,2.3-5.14,5.14s2.3,5.14,5.14,5.14S51.83,160.26,51.83,157.42z M48.83,157.42
		c0,1.18-0.96,2.14-2.14,2.14s-2.14-0.96-2.14-2.14s0.96-2.14,2.14-2.14S48.83,156.25,48.83,157.42z"/>
</g>
</svg>
