<?xml version="1.0" encoding="utf-8"?>
<!-- Generator: Adobe Illustrator 23.0.1, SVG Export Plug-In . SVG Version: 6.00 Build 0)  -->
<svg version="1.1" id="Popsicle_x5F_IceCream" xmlns="http://www.w3.org/2000/svg" xmlns:xlink="http://www.w3.org/1999/xlink"
	 x="0px" y="0px" viewBox="0 0 55.84 148.64" style="enable-background:new 0 0 55.84 148.64;" xml:space="preserve">
<style type="text/css">
	.st0{fill:#FFC83A;}
	.st1{fill:#E0A626;}
	.st2{fill:#E0A526;}
	.st3{fill:#F15E54;}
	.st4{fill:#D63D30;}
</style>
<g id="Popsicle">
	<path id="Popsicle_x5F_Fill" class="st0" d="M28.29,146.14h-0.75c-3.08,0-5.58-2.5-5.58-5.58v-34.59h11.92v34.59
		C33.88,143.64,31.38,146.14,28.29,146.14z"/>
	<path id="Popsicle_x5F_Outline" class="st1" d="M28.29,148.64h-0.75c-4.46,0-8.08-3.63-8.08-8.08v-34.59c0-1.38,1.12-2.5,2.5-2.5
		h11.92c1.38,0,2.5,1.12,2.5,2.5v34.59C36.38,145.01,32.75,148.64,28.29,148.64z M24.46,108.47v32.09c0,1.7,1.38,3.08,3.08,3.08
		h0.75c1.7,0,3.08-1.38,3.08-3.08v-32.09H24.46z"/>
	<path id="Popsicle_x5F_Lines" class="st2" d="M28.48,113.46h-6.52c-0.97,0-1.75-0.78-1.75-1.75s0.78-1.75,1.75-1.75h6.52
		c0.97,0,1.75,0.78,1.75,1.75S29.44,113.46,28.48,113.46z M35.63,121.3c0-0.97-0.78-1.75-1.75-1.75h-6.52
		c-0.97,0-1.75,0.78-1.75,1.75s0.78,1.75,1.75,1.75h6.52C34.84,123.05,35.63,122.27,35.63,121.3z M30.23,128.92
		c0-0.97-0.78-1.75-1.75-1.75h-6.52c-0.97,0-1.75,0.78-1.75,1.75s0.78,1.75,1.75,1.75h6.52C29.44,130.67,30.23,129.89,30.23,128.92z
		 M35.63,139.1c0-0.97-0.78-1.75-1.75-1.75h-6.52c-0.97,0-1.75,0.78-1.75,1.75s0.78,1.75,1.75,1.75h6.52
		C34.84,140.85,35.63,140.07,35.63,139.1z"/>
</g>
<g id="IceCream">
	<path id="IceCream_x5F_Background" class="st3" d="M53.34,26.33v10.66H2.5V26.33C2.5,13.17,13.17,2.5,26.33,2.5h3.18
		C42.67,2.5,53.34,13.17,53.34,26.33z M2.5,36.99v34.49h50.84V36.99H2.5z M2.5,71.48v27.44c0,3.89,3.16,7.05,7.05,7.05h36.74
		c3.89,0,7.05-3.16,7.05-7.05V71.48H2.5z"/>
	<path id="IceCream_x5F_Outline" class="st4" d="M23.59,92.81H13.32c-1.1,0-2-0.9-2-2V26.8c0-3.76,3.06-6.81,6.81-6.81h0.64
		c3.76,0,6.81,3.06,6.81,6.81v64.02C25.59,91.92,24.69,92.81,23.59,92.81z M15.32,88.81h6.27V26.8c0-1.55-1.26-2.81-2.81-2.81h-0.64
		c-1.55,0-2.81,1.26-2.81,2.81V88.81z M42.52,92.81H32.25c-1.1,0-2-0.9-2-2V26.8c0-3.76,3.06-6.81,6.81-6.81h0.64
		c3.76,0,6.81,3.06,6.81,6.81v64.02C44.52,91.92,43.63,92.81,42.52,92.81z M34.25,88.81h6.27V26.8c0-1.55-1.26-2.81-2.81-2.81h-0.64
		c-1.55,0-2.81,1.26-2.81,2.81V88.81z M46.29,108.47H9.55c-5.26,0-9.55-4.28-9.55-9.55V26.33C0,11.81,11.81,0,26.33,0h3.19
		c14.52,0,26.33,11.81,26.33,26.33v72.59C55.84,104.18,51.56,108.47,46.29,108.47z M26.33,5C14.57,5,5,14.57,5,26.33v72.59
		c0,2.51,2.04,4.55,4.55,4.55h36.75c2.51,0,4.55-2.04,4.55-4.55V26.33C50.84,14.57,41.27,5,29.51,5H26.33z"/>
</g>
</svg>
