<?xml version="1.0" encoding="utf-8"?>
<!-- Generator: Adobe Illustrator 23.0.1, SVG Export Plug-In . SVG Version: 6.00 Build 0)  -->
<svg version="1.1" id="Shell" xmlns="http://www.w3.org/2000/svg" xmlns:xlink="http://www.w3.org/1999/xlink" x="0px" y="0px"
	 viewBox="0 0 124.62 106.43" style="enable-background:new 0 0 124.62 106.43;" xml:space="preserve">
<style type="text/css">
	.st0{fill:#F9F6E5;}
	.st1{fill:#FDFDFE;}
	.st2{fill:#D8CBAD;stroke:#D8CBAD;stroke-miterlimit:10;}
</style>
<path id="Fill_x5F_Color" class="st0" d="M122.63,44.12c0,33.25-27.06,60.31-60.32,60.31C29.06,104.43,2,77.37,2,44.12
	c0-0.41,0.25-0.77,0.61-0.92C2.25,43.05,2,42.69,2,42.28C2,19.36,20.65,0.71,43.57,0.71c17.31,0,32.18,10.65,38.42,25.74
	c6.1-5.48,13.91-8.48,22.16-8.48c2.35,0,4.66,0.24,6.91,0.72c2.26,0.47,4.46,1.19,6.59,2.14c0.01,0,0.01,0,0.02,0.01
	c0.04,0.01,0.06,0.05,0.1,0.07c0.07,0.04,0.15,0.09,0.21,0.15c0.04,0.04,0.06,0.1,0.1,0.15c0.03,0.05,0.08,0.1,0.11,0.16
	C121.13,28.6,122.63,36.25,122.63,44.12"/>
<path id="Highlight" class="st1" d="M54.44,73.55h-0.16c-16.58,0-30.06-13.48-30.06-30.06c0-11.19,9.1-20.29,20.29-20.29
	c0.47,0,0.94,0.02,1.4,0.06c-8.52,2.78-14.69,10.8-14.69,20.23C31.22,57.91,41.1,70.06,54.44,73.55z M92.34,42.98
	c0-6.87-1.74-13.34-4.8-19c-1.74,1.13-3.37,2.44-4.88,3.92c-0.04,0.05-0.09,0.08-0.15,0.1c1.82,4.64,2.83,9.7,2.83,14.98
	c0,0.1-0.03,0.18-0.08,0.25v0.01c0.05,0.07,0.08,0.16,0.08,0.25c0,14.42-9.88,26.57-23.22,30.06h0.16
	c16.58,0,30.06-13.48,30.06-30.06c0-0.09,0.03-0.18,0.08-0.25v-0.01C92.37,43.16,92.34,43.08,92.34,42.98z M11.21,43.49
	c0-0.09,0.02-0.18,0.07-0.25c-0.04-0.07-0.07-0.16-0.07-0.26c0-19.52,13.69-35.9,31.98-40.05C21.6,3.51,4.2,21.25,4.2,42.98
	c0,0.1-0.03,0.19-0.07,0.26c0.05,0.07,0.07,0.16,0.07,0.25c0,31.28,24.55,56.94,55.39,58.72C32.06,96.86,11.21,72.56,11.21,43.49z
	 M48.22,43.49V43.4c0-1.5,0.54-2.87,1.43-3.93c-0.92-0.77-2.08-1.21-3.3-1.21c-2.83,0-5.13,2.3-5.13,5.14v0.09
	c0,6.51,5.29,11.8,11.79,11.8c0.84,0,1.67-0.09,2.46-0.26C51.19,52.96,48.22,48.56,48.22,43.49z M91.48,97.53
	c0-12.72-5.79-23.41-16.79-29.81c-1.19-0.69-1.92-0.52-2.62,0.67c-0.7,1.19-2.14,1.76-0.95,2.45c9.47,5.52,15.35,15.74,15.35,26.69
	c0,1.38,1.12,2.5,2.5,2.5S91.48,98.91,91.48,97.53z M6.13,67.08c7.68-0.18,15.07-3.1,20.81-8.2c1.03-0.92,1.12-2.5,0.21-3.53
	c-0.92-1.03-2.5-1.12-3.53-0.21c-4.86,4.32-11.11,6.79-17.6,6.94c-1.38,0.03-2.47,1.18-2.44,2.56c0.03,1.36,1.14,2.44,2.5,2.44
	C6.08,67.08,6.1,67.08,6.13,67.08z M58,29.01c5.85-5.29,9.21-12.55,9.46-20.42c0.04-1.38-4.95-1.54-5-0.16
	c-0.2,6.5-2.98,12.5-7.82,16.87c-1.02,0.93-1.1,2.51-0.18,3.53c0.49,0.55,1.17,0.82,1.85,0.82C56.92,29.65,57.52,29.44,58,29.01z"/>
<path id="Oultine" class="st2" d="M52.31,58.92c-8.16,0-14.8-6.64-14.8-14.8c0-1.38,1.12,2.4,2.5,2.4s2.5-3.78,2.5-2.4
	c0,5.4,4.39,9.8,9.8,9.8c5.4,0,9.8-4.39,9.8-9.8c0-1.38,1.12,2.5,2.5,2.5s2.5-3.88,2.5-2.5C67.11,52.28,60.47,58.92,52.31,58.92z
	 M67.11,44.12c0-12.84-10.45-23.29-23.3-23.29c-12.84,0-23.29,10.45-23.29,23.29c0,1.38,1.12,2.5,2.5,2.5s2.5-1.12,2.5-2.5
	c0-10.09,8.21-18.29,18.29-18.29c10.09,0,18.3,8.21,18.3,18.29c0,1.38,1.12,2.5,2.5,2.5S67.11,45.5,67.11,44.12z M86.63,44.12
	c0-1.38-1.12-2.5-2.5-2.5s-2.5,1.12-2.5,2.5c0,15.47-12.59,28.06-28.06,28.06c-15.47,0-28.06-12.59-28.06-28.06
	c0-1.38-1.12-2.5-2.5-2.5s-2.5,1.12-2.5,2.5c0,18.23,14.83,33.06,33.06,33.06S86.63,62.35,86.63,44.12z M86.63,43.57
	c0-23.75-19.32-43.07-43.07-43.07S0.5,19.82,0.5,43.57c0,1.38,1.12,2.5,2.5,2.5s2.5-1.12,2.5-2.5C5.5,22.58,22.58,5.5,43.57,5.5
	s38.07,17.08,38.07,38.07c0,1.38,1.12,2.5,2.5,2.5S86.63,44.95,86.63,43.57z M124.12,44.12c0-8.06-1.53-15.91-4.55-23.31
	c-0.52-1.28-1.98-1.89-3.26-1.37c-1.28,0.52-1.89,1.98-1.37,3.26c2.77,6.8,4.18,14.01,4.18,21.42c0,31.33-25.49,56.81-56.81,56.81
	S5.5,75.45,5.5,44.12c0-1.38-1.12-2.5-2.5-2.5s-2.5,1.12-2.5,2.5c0,34.08,27.73,61.81,61.81,61.81S124.12,78.2,124.12,44.12
	 M42.51,44.02c0-1.73,1.41-3.14,3.14-3.14c1.11,0,2.15,0.6,2.72,1.56c0.7,1.19,2.23,1.6,3.42,0.9c1.19-0.69,1.6-2.23,0.9-3.42
	c-1.45-2.5-4.15-4.05-7.04-4.05c-4.49,0-8.14,3.65-8.14,8.14c0,1.38,1.12,2.5,2.5,2.5S42.51,45.4,42.51,44.02z M83.36,29.96
	c5.58-5.47,12.96-8.49,20.78-8.49c4.21,0,8.28,0.86,12.09,2.57c1.26,0.56,2.74,0,3.3-1.26c0.56-1.26,0-2.74-1.26-3.3
	c-4.46-1.99-9.21-3-14.13-3c-9.14,0-17.76,3.52-24.28,9.92c-0.99,0.97-1,2.55-0.04,3.54c0.49,0.5,1.14,0.75,1.79,0.75
	C82.24,30.67,82.87,30.43,83.36,29.96z M92.79,95.96c0-12.72-6.83-24.6-17.84-31.01c-1.19-0.69-2.72-0.29-3.42,0.9
	c-0.7,1.19-0.29,2.72,0.9,3.42c9.47,5.52,15.35,15.75,15.35,26.69c0,1.38,1.12,2.5,2.5,2.5S92.79,97.34,92.79,95.96z M7.43,68.52
	c7.68-0.18,15.07-3.09,20.81-8.2c1.03-0.92,1.12-2.5,0.21-3.53c-0.92-1.03-2.5-1.12-3.53-0.21c-4.85,4.32-11.11,6.79-17.6,6.94
	c-1.38,0.03-2.47,1.18-2.44,2.56c0.03,1.36,1.14,2.44,2.5,2.44C7.39,68.52,7.41,68.52,7.43,68.52z M59.3,30.44
	c5.85-5.29,9.21-12.55,9.46-20.42c0.04-1.38-1.04-2.53-2.42-2.58c-1.37-0.05-2.53,1.04-2.58,2.42c-0.2,6.5-2.98,12.5-7.82,16.87
	c-1.02,0.93-1.1,2.51-0.18,3.53c0.49,0.55,1.17,0.82,1.85,0.82C58.23,31.09,58.83,30.87,59.3,30.44z"/>
</svg>
