<?xml version="1.0" encoding="utf-8"?>
<!-- Generator: Adobe Illustrator 23.0.1, SVG Export Plug-In . SVG Version: 6.00 Build 0)  -->
<svg version="1.1" id="Soda_x5F_Can" xmlns="http://www.w3.org/2000/svg" xmlns:xlink="http://www.w3.org/1999/xlink" x="0px"
	 y="0px" viewBox="0 0 68.34 130.94" style="enable-background:new 0 0 68.34 130.94;" xml:space="preserve">
<style type="text/css">
	.st0{fill:#D63D30;}
	.st1{fill:#EAEAEA;}
	.st2{fill:#DCDBD9;}
	.st3{fill:#FFC83A;}
	.st4{fill:#EF5144;}
	.st5{fill:#E0A626;}
</style>
<path id="Notch" class="st0" d="M34.17,11.81c-0.29,0-0.59-0.05-0.87-0.17L15.63,4.47c-1.19-0.48-1.76-1.83-1.27-3.02
	c0.48-1.19,1.83-1.76,3.02-1.28l17.67,7.17c1.19,0.48,1.76,1.83,1.27,3.02C35.95,11.27,35.08,11.81,34.17,11.81z"/>
<g id="Can">
	<path id="Can_x5F_Fill" class="st1" d="M57.17,9.49h-46l-5.08,6.24c-2.32,2.84-3.58,6.4-3.58,10.07v91.88
		c0,2.01,0.73,3.96,2.06,5.48l2.96,3.39c1.05,1.2,2.57,1.89,4.17,1.89h44.98c1.6,0,3.12-0.69,4.17-1.89l2.96-3.39
		c1.33-1.52,2.06-3.46,2.06-5.48V25.8c0-3.67-1.27-7.23-3.58-10.07L57.17,9.49z"/>
	<path id="Can_x5F_Outline" class="st2" d="M56.66,130.94H11.68c-2.32,0-4.52-1-6.05-2.75l-2.96-3.39C0.95,122.83,0,120.3,0,117.68
		V25.8c0-4.23,1.47-8.37,4.15-11.65l5.08-6.24c0.47-0.58,1.19-0.92,1.94-0.92h46c0.75,0,1.46,0.34,1.94,0.92l5.08,6.24
		c2.67,3.28,4.15,7.42,4.15,11.65v91.88c0,2.62-0.95,5.15-2.67,7.12l-2.96,3.39C61.18,129.94,58.98,130.94,56.66,130.94z M12.36,12
		l-4.33,5.32c-1.95,2.39-3.02,5.41-3.02,8.49v91.88c0,1.41,0.51,2.77,1.44,3.83l2.96,3.39c0.58,0.66,1.41,1.04,2.28,1.04h44.98
		c0.88,0,1.71-0.38,2.28-1.04l2.96-3.39c0.93-1.06,1.44-2.42,1.44-3.83V25.8c0-3.08-1.07-6.1-3.02-8.49L56,11.99L12.36,12L12.36,12z
		"/>
</g>
<g id="Label">
	<rect id="Fill_x5F_LIght" x="2.5" y="25.03" class="st3" width="63.33" height="90.87"/>
	<path id="Logo" class="st4" d="M55.34,68.87c0,11.69-9.48,21.17-21.17,21.17S13,80.56,13,68.87S22.48,47.7,34.17,47.7
		S55.34,57.18,55.34,68.87z M57.65,68.87c0-12.95-10.54-23.48-23.48-23.48c-12.95,0-23.48,10.53-23.48,23.48
		s10.53,23.48,23.48,23.48C47.12,92.35,57.65,81.82,57.65,68.87z M53.02,68.87c0,10.39-8.46,18.85-18.85,18.85
		s-18.85-8.46-18.85-18.85s8.46-18.85,18.85-18.85S53.02,58.47,53.02,68.87z M46.91,68.87c0,7.04-5.7,12.74-12.74,12.74
		s-12.74-5.7-12.74-12.74s5.7-12.74,12.74-12.74C41.21,56.13,46.91,61.83,46.91,68.87z"/>
	<path id="Fill_x5F_Dark" class="st5" d="M67.5,33.64H4.17v-8.6H67.5V33.64z M67.5,107.3H4.17v8.6H67.5V107.3z M65.84,118.4H2.5
		c-1.38,0-2.5-1.12-2.5-2.5V25.03c0-1.38,1.12-2.5,2.5-2.5h63.33c1.38,0,2.5,1.12,2.5,2.5v90.87
		C68.34,117.28,67.22,118.4,65.84,118.4z M5,113.4h58.33V27.53H5V113.4z M65.84,36.14H2.5c-1.38,0-2.5-1.12-2.5-2.5v-8.6
		c0-1.38,1.12-2.5,2.5-2.5h63.33c1.38,0,2.5,1.12,2.5,2.5v8.6C68.34,35.02,67.22,36.14,65.84,36.14z M5,31.14h58.33v-3.6H5V31.14z
		 M65.84,118.4H2.5c-1.38,0-2.5-1.12-2.5-2.5v-8.6c0-1.38,1.12-2.5,2.5-2.5h63.33c1.38,0,2.5,1.12,2.5,2.5v8.6
		C68.34,117.28,67.22,118.4,65.84,118.4z M5,113.4h58.33v-3.6H5V113.4z"/>
</g>
</svg>
