<?xml version="1.0" encoding="utf-8"?>
<!-- Generator: Adobe Illustrator 23.0.1, SVG Export Plug-In . SVG Version: 6.00 Build 0)  -->
<svg version="1.1" id="Watermelon" xmlns="http://www.w3.org/2000/svg" xmlns:xlink="http://www.w3.org/1999/xlink" x="0px" y="0px"
	 viewBox="0 0 155.26 80.13" style="enable-background:new 0 0 155.26 80.13;" xml:space="preserve">
<style type="text/css">
	.st0{fill:#EF5144;}
	.st1{fill:#F15E54;}
	.st2{fill:#D63D30;}
	.st3{fill:#3FB763;}
	.st4{fill:#32964F;}
	.st5{fill:#ED4434;}
</style>
<g id="Flesh">
	<path id="Background_3_" class="st0" d="M140.78,2.95c0,34.88-28.27,63.15-63.15,63.15c-34.88,0-63.15-28.27-63.15-63.15H140.78z"
		/>
	<path id="Highlight_3_" class="st1" d="M123.44,1.88c0,25.3-20.51,45.81-45.81,45.81c-25.3,0-45.81-20.51-45.81-45.81H123.44z"/>
	<path id="Flesh_x5F_Outline" class="st2" d="M77.63,68.15c-36.2,0-65.65-29.45-65.65-65.65c0-1.38,1.12-2.5,2.5-2.5h126.3
		c1.38,0,2.5,1.12,2.5,2.5C143.28,38.7,113.83,68.15,77.63,68.15z M17.03,5c1.31,32.29,27.99,58.15,60.6,58.15
		S136.91,37.29,138.23,5H17.03z"/>
</g>
<g id="Body">
	<path id="Body_x5F_Fill" class="st3" d="M152.76,2.5c0,41.49-33.64,75.13-75.13,75.13C36.14,77.63,2.5,43.99,2.5,2.5h11.98
		c0,34.88,28.27,63.15,63.15,63.15c34.88,0,63.15-28.27,63.15-63.15H152.76z"/>
	<path id="Body_x5F_Outline" class="st4" d="M77.63,80.13C34.82,80.13,0,45.31,0,2.5C0,1.12,1.12,0,2.5,0h11.98
		c1.38,0,2.5,1.12,2.5,2.5c0,33.44,27.21,60.65,60.65,60.65s60.65-27.21,60.65-60.65c0-1.38,1.12-2.5,2.5-2.5h11.98
		c1.38,0,2.5,1.12,2.5,2.5C155.26,45.31,120.44,80.13,77.63,80.13z M5.04,5c1.32,38.9,33.38,70.13,72.59,70.13S148.9,43.9,150.22,5
		h-6.99c-1.32,35.04-30.24,63.15-65.6,63.15S13.35,40.04,12.03,5H5.04z"/>
</g>
<path id="Seed" class="st5" d="M40.24,15.1c0,1.4-0.4,2.69-1.08,3.79c-0.4,0.64-1.33,0.64-1.73,0c-0.69-1.1-1.08-2.4-1.08-3.79
	c0-1.4,0.4-2.69,1.08-3.79c0.4-0.64,1.33-0.64,1.73,0C39.84,12.41,40.24,13.7,40.24,15.1z M54.89,11.31c-0.4-0.64-1.33-0.64-1.73,0
	c-0.69,1.1-1.08,2.4-1.08,3.79c0,1.4,0.4,2.69,1.08,3.79c0.4,0.64,1.33,0.64,1.73,0c0.69-1.1,1.08-2.4,1.08-3.79
	C55.97,13.7,55.58,12.41,54.89,11.31z M70.63,11.31c-0.4-0.64-1.33-0.64-1.73,0c-0.69,1.1-1.08,2.4-1.08,3.79
	c0,1.4,0.4,2.69,1.08,3.79c0.4,0.64,1.33,0.64,1.73,0c0.69-1.1,1.08-2.4,1.08-3.79C71.71,13.7,71.31,12.41,70.63,11.31z
	 M86.36,11.31c-0.4-0.64-1.33-0.64-1.73,0c-0.69,1.1-1.08,2.4-1.08,3.79c0,1.4,0.4,2.69,1.08,3.79c0.4,0.64,1.33,0.64,1.73,0
	c0.69-1.1,1.08-2.4,1.08-3.79C87.44,13.7,87.05,12.41,86.36,11.31z M102.1,11.31c-0.4-0.64-1.33-0.64-1.73,0
	c-0.69,1.1-1.08,2.4-1.08,3.79c0,1.4,0.4,2.69,1.08,3.79c0.4,0.64,1.33,0.64,1.73,0c0.69-1.1,1.08-2.4,1.08-3.79
	C103.18,13.7,102.78,12.41,102.1,11.31z M117.83,11.31c-0.4-0.64-1.33-0.64-1.73,0c-0.69,1.1-1.08,2.4-1.08,3.79
	c0,1.4,0.4,2.69,1.08,3.79c0.4,0.64,1.33,0.64,1.73,0c0.69-1.1,1.08-2.4,1.08-3.79C118.91,13.7,118.52,12.41,117.83,11.31z
	 M47.02,27.38c-0.4-0.64-1.33-0.64-1.73,0c-0.69,1.1-1.08,2.4-1.08,3.79c0,1.4,0.4,2.69,1.08,3.79c0.4,0.64,1.33,0.64,1.73,0
	c0.69-1.1,1.08-2.4,1.08-3.79C48.11,29.78,47.71,28.48,47.02,27.38z M62.76,27.38c-0.4-0.64-1.33-0.64-1.73,0
	c-0.69,1.1-1.08,2.4-1.08,3.79c0,1.4,0.4,2.69,1.08,3.79c0.4,0.64,1.33,0.64,1.73,0c0.69-1.1,1.08-2.4,1.08-3.79
	C63.84,29.78,63.45,28.48,62.76,27.38z M78.49,27.38c-0.4-0.64-1.33-0.64-1.73,0c-0.69,1.1-1.08,2.4-1.08,3.79
	c0,1.4,0.4,2.69,1.08,3.79c0.4,0.64,1.33,0.64,1.73,0c0.69-1.1,1.08-2.4,1.08-3.79C79.58,29.78,79.18,28.48,78.49,27.38z
	 M94.23,27.38c-0.4-0.64-1.33-0.64-1.73,0c-0.69,1.1-1.08,2.4-1.08,3.79c0,1.4,0.4,2.69,1.08,3.79c0.4,0.64,1.33,0.64,1.73,0
	c0.69-1.1,1.08-2.4,1.08-3.79C95.31,29.78,94.92,28.48,94.23,27.38z M109.96,27.38c-0.4-0.64-1.33-0.64-1.73,0
	c-0.69,1.1-1.08,2.4-1.08,3.79c0,1.4,0.4,2.69,1.08,3.79c0.4,0.64,1.33,0.64,1.73,0c0.69-1.1,1.08-2.4,1.08-3.79
	C111.05,29.78,110.65,28.48,109.96,27.38z M54.89,43.45c-0.4-0.64-1.33-0.64-1.73,0c-0.69,1.1-1.08,2.4-1.08,3.79
	c0,1.4,0.4,2.69,1.08,3.79c0.4,0.64,1.33,0.64,1.73,0c0.69-1.1,1.08-2.4,1.08-3.79C55.97,45.85,55.58,44.55,54.89,43.45z
	 M70.63,43.45c-0.4-0.64-1.33-0.64-1.73,0c-0.69,1.1-1.08,2.4-1.08,3.79c0,1.4,0.4,2.69,1.08,3.79c0.4,0.64,1.33,0.64,1.73,0
	c0.69-1.1,1.08-2.4,1.08-3.79C71.71,45.85,71.31,44.55,70.63,43.45z M86.36,43.45c-0.4-0.64-1.33-0.64-1.73,0
	c-0.69,1.1-1.08,2.4-1.08,3.79c0,1.4,0.4,2.69,1.08,3.79c0.4,0.64,1.33,0.64,1.73,0c0.69-1.1,1.08-2.4,1.08-3.79
	C87.44,45.85,87.05,44.55,86.36,43.45z M102.1,43.45c-0.4-0.64-1.33-0.64-1.73,0c-0.69,1.1-1.08,2.4-1.08,3.79
	c0,1.4,0.4,2.69,1.08,3.79c0.4,0.64,1.33,0.64,1.73,0c0.69-1.1,1.08-2.4,1.08-3.79C103.18,45.85,102.78,44.55,102.1,43.45z"/>
</svg>
